<mxfile host="app.diagrams.net" agent="Mozilla/5.0 (Windows NT 10.0; Win64; x64) AppleWebKit/537.36 (KHTML, like Gecko) Chrome/138.0.0.0 Safari/537.36" version="28.0.7">
  <diagram name="Page-1" id="aFcFOwSeijdDrjyjrSRe">
    <mxGraphModel dx="1665" dy="777" grid="1" gridSize="10" guides="1" tooltips="1" connect="1" arrows="1" fold="1" page="1" pageScale="1" pageWidth="850" pageHeight="1100" math="0" shadow="0">
      <root>
        <mxCell id="0" />
        <mxCell id="1" parent="0" />
        <mxCell id="XOACGdIlgl1HNSo2p2i9-2" value="" style="rounded=1;whiteSpace=wrap;html=1;" parent="1" vertex="1">
          <mxGeometry x="720" y="434" width="200" height="230" as="geometry" />
        </mxCell>
        <mxCell id="XOACGdIlgl1HNSo2p2i9-1" value="" style="shape=image;verticalLabelPosition=bottom;labelBackgroundColor=default;verticalAlign=top;aspect=fixed;imageAspect=0;image=data:image/jpeg,/9j/4AAQSkZJRgABAQAAAQABAAD/2wCEAAkGBwgHBgkIBwgKCgkLDRYPDQwMDRsUFRAWIB0iIiAdHx8kKDQsJCYxJx8fLT0tMTU3Ojo6Iys/RD84QzQ5OjcBCgoKDQwNGg8PGjclHyU3Nzc3Nzc3Nzc3Nzc3Nzc3Nzc3Nzc3Nzc3Nzc3Nzc3Nzc3Nzc3Nzc3Nzc3Nzc3Nzc3N//AABEIAMAAzAMBEQACEQEDEQH/xAAcAAEAAQUBAQAAAAAAAAAAAAAABQEDBAYHAgj/xABLEAABAwQAAwQEBwsICwAAAAABAAIDBAUGERIhMQcTQWFRcZHRIiMygZShwRQWFzVCUlVWdLGyCBUzVJKzwuElJjY3OENEYnOi8f/EABsBAQABBQEAAAAAAAAAAAAAAAADAQIEBQYH/8QANhEBAAIBAgQCBwUIAwAAAAAAAAECAwQRBRIhMVFxBjI0QWGBkRUiU9HwExQjJDNCQ8FSkuH/2gAMAwEAAhEDEQA/AO4oCAgICAgICAgICAgICAgICAgICAgICAgICAgICAgICAgICAgbQEBAQEBAQEBAQEBAQEBAQEBAQEBAQEBBTYQW5p4oGF80jGMH5TjoJM7LL5K0je07Q1y45fSQEso4zUP/ADjyb/mredo9Tx7Bj6Yo5p+kNZrchuNW7b6h0bQdtbENAK3ed2hz8W1Oed+bbyTdly3XDDdPmmb9o+1XxLa6Dj2+1NR9W3xyskYHscHNI2CDyKq6Wt4tG8T0YlyuEdHGOjpT8lu/3rF1Oprhr4yty5Yxws2KqfUMmMruJ3Fv1KLQ5rZKzN+63Bkm8TMpVZ6cQEBAQEBAQEBAQEBAQEBAQY1fVxUNO+oqHERM66G032Q6jPTBjnJftDUbjmUjwWW+Hux+fJ19ijtffs5rVekNp6Ya7fGWt1dbU1khfVSulPhs9PUrO/doc+py57b5LbsfR9CMc0Vcor08FdCqasFbXUe+5fqA/kv5jfl6FjanWVxxyx3b3hWXU4p3rO1fizJJXyyF8juJx6na0d7WvPNaercc82mZmUzjEnx80fpaCFsOGz961WZo7femGxDotw2CqAgICAgICAgICAgICAgICDX82eW2VzR+U9oVt+zS8dttpJj4w554qLZxDlmS5BdqW+VsMFfMyJkmmtGtBSREO40Gg0uTS0vakbzCM++i9fpKf6lXlZf2Xo/w4VGT3s9LlN7Qq7H2Xo/w4Bk9756uU/1e5Nj7M0f4cLozDIWjTbtOAPAEe5Rzp8UzvNU8aXDWNoqDMsjPS71PtHuVP3bD/wAV37DF4LkOcZRTuL4r1UsdrWwR7ldTDjpO9Y2XVx1rO8Q+q8bqXVOP2+eSQyvfTsc9/XZ1zUswrFomN4SiouEBAQEBAQEBAQEBAQEBAQarnz9UFOzfypd6+ZWXlz3pFP8AApHxaN4qzdxzSMTjZL210kcrGvYal+2uAIPxTlLHZ6Hwz2PH5O0ZblmLYjUwQXimax87C9hjpQ4aHqCqz2BVWPEe0rHpKm208LZHBzY6mOIRyRv8/cUHKOzDs5dkd6rP5342UFumMUwYdd5IDrhB9HJB1S55phGCzCzRQRxyR644aSAHg3+cR4/Wghs1uvZ3kmJVF3lETpWngidCwR1IlI5DXUj18kHz6DrXLzRWH0Ph15qLVb6Pg+HAYm8UXp5dR5rczpqZcceLhcPEsmj1F9utd56fk6Zb6+CvpxNTO4mnqPEHzWqyYrY7ctnY6bU49RSL45ZgUbIEBAQEBAQEBAQEBAQEBBpnaC7b6Fm/zz+5R3cv6Rz/AE48/wDTT/FW7OWaVh/+++j/AGl/905Sx2ehcM9jx+TqvaX2cy5vWUdRHcWUgp4ywgxF3Fs+tVZ73ZaGz9k+JTituPev2ZXFwDTK/XJrW9UHjsYqvu7DKiuY1oqamuqJpAOgc52/cg+cL26ofeK51WT3/wB0P7zi672doMHn7UDr4oO92Wknls1LI2F7mNhaSfDWluY1mDFyY7XiLW6RHjLz7Lo82TLkvWs7RM9Wfba2qoalslG74wnXD1Dt+BHis3Lhplptbsi0mpy6fJFsXfw8XUoXPdEwyNDXlo4gD0K5qdt+j0Sk2msTbuuKi4QEBAQEBAQEBAQEBAKDQ89k3coGfmQ79p/yUd3H+kV/5ilfCGsAfWrHOy0nEXNj7bKV0jgxoqn7LuQHxTlNXtu9F4bXbSY4+DYv5QF4qaa6WsWy4yxAwuLxTzkAnfLelVmuOVVdV1rw6sqZqhw6GWQu17UHQ+xzPocVrJaC6uc22VTg7vAN9y/ps+R8UHTsh7NcWzOsN3grJIJJ+cj6ORhZL5kEHn7EERk+J9nuI4jU0Ve9zpptcEvGH1L5ADw8OhoDmfABB8/7I0FWB9X2BjXY9QMcOTqVgP8AZXlefUXx6yclZ61t0+Usucdb45rPae7CxK1PkuT5Zx8GlOvW9e16rWVvgrak9Lxv8p6uE4Pw+06m1r/2Tt82+t6LTuwVQEBAQEBAQEBAQEBAQUKDnWaPD77IB+SxgPs39qiv3cPx20W1k7e6IQ9OwOmaHdBzUGa21doazDWLXjdxnM3luWXJzCQe+PMHXgFkYvUh6Fo9v3em3ggnPc4DicTr0lSMlQckDiO9oMimuFbSAilq6iAHqIpXN/cUFqWeWZ5kmkfI89XvcST86DxvarA+s8d/EFu/Zo/4QvJNZP8AMX85bCkfdhsNsijjhJjboucXP8yvQ+CaqdRoac39vT6MC2GmO9prHed2ctuoICAgICAgICAgICAgIPJ6oo5lkz+8v1YfQ8N9gA+xQWnrLgOLW31uTz/0jGkg8lBbq10Ts5FfqGquuZVdHQwunqpp9Rxt6uOvP1LLx+rD0PhszOjxzPgyfwa5l+r9V/6+9Xs4/BtmPjYKr2t96CGvuPXawSRx3mglpHygmMSa+EB16IItAQVCrA+s8d/EFu/Zo/4QvI9Z7RfzlsKerCftr/lM+ddT6LZ/6mGfNBqI7SkB0XZMYQEBAQEBAQEBAQEBAQeXIo5Vd395dax/pmefrWL3mXnOunm1WSfjLEHVUliOTXO6VVkzme529zWVNNPxRuc3iAOtdPnWTT1YeicM9jx+Sc/DPmf9apfo7Vczj8M2Zn/q6X6O1BrWWZddstnp5r1JFI+BpbGWRhugTsoIFBRBUKsD6zx38QW79mj/AIQvI9Z7RfzlsKerCXo3cFQzz5LP4HqP2OtpPj0+v/q3LG9UuF6YwVUBAQEBAQEBAQEBAQEFCghLxjlHcdyNHc1B/wCYxvX1jxVtqxLVa3hODUxzbbW8fzaVdLNWW13x8ZdH4St+SfcoZryuT1nDs+mn70bx4oGaz2ueV0s1upJJHHbnuhaST5q3mlDXWamsctck/WUxZsYsT6YmWy255J5bpmHl7FpdfqM1b8tbTHzdTwfLlvh5r3mevvndJNxTHf0DbPojPctXfWaiP8k/WW5rM7rrcUxzxsNr+iM9yxra3U+7Jb6ymh7GJ43+r9q+iM9yxMnENZH+W31lPWseD2MSxv8AV+1fQ2e5Y88R1n41v+0/mlilfB6+9LG/0BavobPckcS1vuy2+sr+Svgl4o2RRtjiY1kbBprWjQA9AWFe02neV0dFwdQfRzVaWmtotHeOyk9k1G7iY13pG16zp8sZsVcke+Ilr7RtOz2p1BAQEBAQEBAQEBAQEBAQW5Y2ytcyRocx3VpG9p3W2rFo2tG8NXu+IxzcUtud3Uh590fkn1ehR2xxPZz+t4HW/wB7T9J8P12alPDV0E5bMySJ/oPL/wCrHvirbpaN3N3pqdJfad6y2/HLfVVFN39c9wY/5DdaPrKxbcJwZYmZiYddwn96tj589t4nt4+aSfapGncT2uHocNLVajgGXvitE+fRuYnZYfSzx/KiIHlzXP6rhurw+tjnb4J6Wh5C1NomOkp4XGMe/wCS0lS4dNmzTtjpMqzaI97JioZXc3kNC6DTejOqv1yWisfWf180Vs9Y7MqKjjZrYLj5roNLwDR4I3mOafj+tkNstpZLQAAB0W6rWKxtCJVXAgICAgICAgICAgICAgICAgxaqigrGhtTCyRoOwHDoUmIlDkwY8sbZI3ZDW8OgOg8ESxG3SHpFVCNqki2+Bj+bmBx81iZdDp80/xKRPyXRaY7PTWBvINAU+PFTHHLSNoU3me72FKoICAgICAgICAgICAgICAgICAgICAgICAgICAgICAgICAgICAgICAgICAgICAgICAgICAgICAgICAgICAgICAgICAeSDSc27SrVhtwiorjR1sz5Y+8a6na0jW9eLggg6Pt1xeonbHLTXKmaTrvJI2Fo9fC4lB0i319NcqOGsopmTU87Q6ORh2HBBk7QWqqqhpKeSoqpGRQRtLnvc7QaAg5nc+3LHKSqfBR0ldWtYecsTWtYfVs7+pBK2TtUsd+t1dNb+8jrKankmFJU6a54aCeRGwenggy+zTNJM1tdTXS0LaPuZu7DGyce+W970EG479AQN+SBv0c0FN8+iCu/JA35IG/QgqgICAgICAgICAgoUHCu2fgPaTjQl4e73Fx8XTXeDe/JBt/abBh7MQr3VDLeJREe47nh4+Pw1pBzvHrjlFm7Im3WzVT4Yqa4SAt4QQYnAbPzP37Sg6nWZkGdlpyaKQNndRgs34THkB/aQcgy3IsjuOEWiC71zpHXed0pGgB3bSA0cvAnZ9iDtuG4XZ7BY6emjo4ZZnRtdNM9gc57iOaDGvWI2K0W3ILtb6GOCrnoJWvc3oBwnoPDfkg5F2XPzGsxytt+Hsp6cNn7yarmfonlyY3keaDcuyjM8guF9uGN5E/vKqnjcWSOaOJjmnRB9IQK639rc009RFdbdE1rncEAkAc5u+XINI+tBF0vaZfavBL+6pe2nvdqki+NawDbXSBp2Om+oQMPy3NstltEVvilNHTTt/nKrPCO8+ECQD6NeCDGxnMc8v92u1qtE0U8zHO4JqjTW07Q48+nU9EFm25xn1lySoxqvZHXXGQ93E2QjTXkbDgfEaQer1lPaDg1/on5LVwz01SeItj+FG5oPwgOQ0RtB3ijqW1dLDUR/IlYHt9RCC+gICAgICAgICAg4J250rK3PrBRykiOoDInEdQHPA+1BtlJ2IYtBM18z6uoAO+B0mgfYg3essNDNjk9jhgbFRvpzCyJo0ANckHzdHU3Ka3Q9nTmOEjbwST/wBvTh9u3IOmdsOFTzYla57LCXvsrOF0TR8Ix6HMDx0RtBew/tjsM1ngivsz6SuhjDZD3Zc1+h1BCD27tPt+Ux32026jqXQNt0zmVJZyJDDviH5I9G0GP/Jy/wBl6/X9b/woNTirqq39o2bVtvBNVDTzuj0N8+XNBfwSmxS64/Jd8tyOoF07x/GHV7o3RjfLQB575FBqlrdFJj2dPpTJJAWwFjpSS4t7/kT5oO49isMcXZ5bjG0DjLnHQ6naDSewQ/605Lvxd/jcg9Xf/iHpdHfwI/7tB7/lKcqKx/8Akm/c1B1nGuWP239mj/cEEmgICAgICAgICAgibhjlnudfDXV9vgqKqHXdyyDZZo7GvnQSukEFmdVfKSxyy4xSxVNwaRwsl6a8fEb9qDnvZ5iN8rM1qcvyuiio5nbMUDNc3nlxa2daHn4oOvgeSDXLlgmL3SpdU11kpZJnHbnhutnz0gkKLH7TQUEtBR26nhpZmlskcbNBwPUFB7s1jtljhfBaKKKkie7icyIaBPpQWqfHLPTXKa5QW6njrJuLvZmt+E/fXaDAhwPFYa/7vjslI2o4uIO4Oh9IHRBf+83HdVf+iKXVZr7o+D/SaOxv5+aCTttuo7VRso7fTsp6dm+GOMaAQYtox2z2aeaa12+Clkm/pHRjRdz3zQJMcs8t3F3kt0Dri3Wqkt+GNDQ5+pBW9Y9ab6IheKCCsEW+ASjfDvrpBn08EdPCyGBgZFG0NY0dAB4ILqAgICAgICAgICAgIGkFND0IKoCAgICAgICAgICAgICAgICAgICAgICAgICAgICAgICAgICAgICAgICAgICAgICAgICAgICAgICAgICAgICAgICAgICAgICAgICAgICAgICAgICAgICAgICAgICAgICD/9k=;" parent="1" vertex="1">
          <mxGeometry x="727.64" y="514" width="74.38" height="70" as="geometry" />
        </mxCell>
        <mxCell id="XOACGdIlgl1HNSo2p2i9-3" value="" style="shape=image;verticalLabelPosition=bottom;labelBackgroundColor=default;verticalAlign=top;aspect=fixed;imageAspect=0;image=data:image/png,iVBORw0KGgoAAAANSUhEUgAAAWwAAACKCAMAAAC5K4CgAAAAh1BMVEX///8AtAAAsgAAsADk9+Rmy2bD68Pg9uHR8NFyz3L7//uu5a79//3y/PKO2o6r46uh3qFCw0KF14bL78u+6r5u0G6a3popuykAtwCS25K66bpXyVfu++7a9Npcylyz57MlvCU7wTt603omvCZJxUk9wj1ZylpOxk7P8c+f35+D14N503no+OmwP5tvAAALtUlEQVR4nO2d6YKivBKGJRFQWlRUZFE2xXEZ7//6TsKWhUVcRj9P1/tjpsEIyZNQSaqK7sEABAKBQCAQCAQCgUAgEAgEAoFAIBAIBAKBQCAQCAQCgUAg0PfItNWXaGx8uiVfoCF6iXD46YZ8g4bKSxSbn27IN+g1sNHy0+34Cr0ENvY+3Yzv0Ctgo+Pk0834Dr1kZA8/3Yov0QtgY//TjfgWPQ8b7T7dhq/R07CRBduZvnp+ZOufbsL36FnYeMZfTYe9TZeehI1t/mIjtPpUO75Cz8FGDj+Uhy7WPtaQb9CTI/vEXWrrIASwu/QUbLzmrmRYSAHYnXoGNhL8qipWAHa3nhrZV+5CY6z8O9iXeO+O/s2l36knYAtLjylS/iHsMbFQvws2Eg/xgrvMPP8QYHfqDti7hMeNUs6v6hefdMMeap6aWtYxHHvRUr9nl/9y2PrqE33XGzaeDvSYo+1y2/RR1QMdsFd/XBqtJIUyKftw1l5Y0qthay5GHwh49IWNNmQgj1zGPmLX0CsL0w57G6LcqufAs0s4vWv5atgprcL7vfA9YaN4S0svK9Z/2SWubMC3wh5lZZASH2073BycjHrSu5Yvhj1xaBPeb0j6juxiq1gYZ5SwbbppMePSBjtwqflQFkHxNWOrrxbHtHc07dUj28YIfyAhoB9sNC/Ln3F2grXcCDlD3gLboFMrGl+l0/1b+2rY5iIcBy+8Xk/1go027AtTQhuf2bGN+YLNsD3M99cD+lVLv5hr6QVjlR0teNYtsI1YWpXfrV8FG8XcQ6fumT2YizudZtgr2iFPWchfBVtBLqNtMG4raVfZDHtBUD01sH8ZbDK2G2KNy1qpRtgqEpblD+iXwVbQvkY7cGuFGmGT9Ur/3JLJpGFB2Aq7sbQo8zocbvvevZfMayAFW43tcHi97X/o7xtBjrR0u8aoVuY52Ft/dzwcDsedJlW8EbY+U63kYG086RPT86YFi0ngbWLFdRVrLtAZTr0pq+qSHNVG0omcDLijadECfZ3GtKmb6q6T0y6hZxLvVp/e4/UTaZuHGusW2DuCqocn4rpwcZnurcyEEdsAexSy5PCUj84NdIRxhklf70vfANnD8Im2GtnUXKojjxzVItX0JHPenDE+0v9PoVJdcZpjmDm4POPeMJb3+LORxXfdps66BfaMrEas7moQ+QpdjZOLuvQfHPL3qsE2FqQQIq106VeQ0JekSVgbTDRVyb1eGOeuAm5BpWF+yl5jpZ4WQE5ysMmqK5kMln+qDlby3F1jHme1zu+h1PtM0F3BA2Sxh1HYzHTDpve4aUfWlLDjaSM9WF7I7p6/Vw22ERI+6DhbBnqwoltYfhlPYf+s0qwT4nA696MFNXiI6+9HYMeBSrtuP5772izfNuvLhIJ3dmc/8hwsZxs0gniE9qKJddsOMnsIurfHP+R67rw01cMjMfPsOa/BpqyTyi5o4p2zJlEI8e5UVHebdQgzNo/Azp449VRU0ac3icltXLs4ZVzQrTFVh434R6X24TGv/rmRdRvsgH6kdNUjqwaH0zgIeCXYERYH/kkYtzlsZRNxs6xJJjXEeu8h2EixuQHjZTFXd8c5askIQdzmuqWVPOm97c18beWfd5aCG6bADW1C1NQR7bAHs8xqhqfmTwc5TWF2WSIejgjbdMigEiZrsm1i+UFZk1TpxRPCBh2ro0dgo1SYNa4ZDOFx1UgrO93GAmzymGjcgBnO0/rwprRrm5lbsAdRNlkp6bzZY6+Lzi6qhEx+1Rwpwp4TOGKUh36/SoQjTaoPsBPmQTwEW2obHcfi6NkqN97k4mEjqzb0VlaNNlZXbaw7IjVB1m9kdZSuR/XVPzF38jtQtHkVAQG2QQb2XrpGSiawyuDz5EuZiLc0D8GWitjkaRLrTCvmdG1tONjYbihonOvbxBYb0gl7MIkO2RfJP4knTZZZLaXyAe9QEWCPUD0Bn6IpC3wMNjVvTteOlsFus+2nVrR3waZNVF1cBCI3Qs1PDfhMGsAvDwTYFIP8CC4598vnYO97j+x9y2bzrm3PjbyRa2TH+fjG/HRzJvWuxRZSUqXyZwH2QakHa69cROOzI7sXbPxTngqi89wfVYb+2G417oZNtNVsN9/RsaYsmlwfKmeGedhkyNenIZPsJMsszy+A7Rb1v26ylbYS2yujuOlLYdNKzfNYexVco1uO2izeBpuuuWqbf+OrYJfVmxxKuORJX2bGUMSJ3NiJ3eYtT+/0M/OS0S75JeRgMRXlkZONsMkyT9l7UunFV5mR8t4BHytHi8ARoKLE04amaV6X6/qa8A7YZHvOeyuyNA5ZSgfsptLfNLI9rikMnngU++xSk1VSNzB3JFZS50q5tk6yB6muxglSR02wiUo0XwC7vPdazlZlJMdSeOJvz+BBoyYxuykd2bOfmmbV1eSRnfoNpcsN/BfAHpdnTuM9anCKKGha+/JCLnZPyvCOfPmQ/0hMktsZVJJgo85fJfPfh83sI/nS8hy6MnBu18E2SaE8fd4BO8JV1cjCQ+kMKfGwt27VSa1N+q/DloIM5uic8galemtavxziOCzcpdv4cdgjXK2XPdnnJ4uHTe2P29U1XwBbSWrFdI+tRUrPw1nJHUphjmmOH4atMdhRw3ZdkLCDpPHjrryGb4CN/tY/NdduEcwsrORPCbdIQTPdh2HT3VLhtqGV2Hd5cATYPm6sK9+k/zxswq/BF6tbfCRzy2XDL8tbPgibj2uETc4RTgJsWuUuO/Ia2Od/C5uso6M6bjN/kyb/4Aez/IF8cPk9EisbRcMalaPOx91udzF48Lfb6twN+4zkYAQZVjSN61/CptHhaSCXzgKIRUQpOm5KHfO1YvDgyB7GrAsH2eKPLT7rEmFnNWqPaN4Nm9qlVCg99Kj35h/DpnvGw2IlOjCpT65W+eoGt232sCEUttqLjaEuGGRLY5sdSgHfLLQvjUWW7nk37GxPynnIT2OaLfQG2EoWSzmMI2YUmyIjTPubsC8osdfakKHbRpnbVvj1GTTHHsXn8q6TrTZNGA4JNo29k6etSlIzhtHYrVjcDZsGipR9Ds4I1lbm9dy9B3bGGylqGbsidemAndyETZ8MhNx9Gtq7y3Q6PuaBNRwK9cpGK1LChedNd6pFs4wYMTlvZGtleUiOPfW8xThMXFK6mmDvhp0lZiBlc7mMQyfPODlvzfhdsHODUprFI6oqP5HVBzbm3sor81GwO5fWepGLuUKZi7f6rJ5+dikCmqx0lYF2P+zJprp11oczM4tx8bDrC5anwmJkdpQ26OUXCew/+U+z2JElfqUJ9jbabWKFcab/J1597bH19tyv0o3DNUsNsUl/SWHHQHW5dCLHjgSbXYunmhhhPpUBCe+dGGN2KTW3ThNHTKxEcrKTSk5JsGNS7Z6bmnByFkMC5WKMWNiC++lG2KZ1NWIGq/N0HKaHJHbS8fnUXCVz5dmbY6juvJ+R0Bm6tlzWeucaLdTjJrQva19YQk10PZBfTBsYvu8zNKa21MRpe7RWj1Y4XvvVbU5Ljc1bV40/yhSQU2KdJktN6/yltAy2Syq43HPuJ1ysxagpKj3PaXdA8vbSr0f2+v+vJEeUMUuqh31TDBe6lC5nyIA5p5DSNxkeVKjyZ5eJdcZooVqOk9rVfOBlTIunbhnnlgShg2YmMm2A3akStuDzMwyDPexmtter5vftmlgVN9mtJg35OwC7UyXsuDV9unA1cd6DbfWuzvSJ4MEvFJsgW5wNLBO7oYDxRPDgF4rP9Wt409G4sMUeOsufmhcwI/eI39Qof+XsUl/Y5+A/wufmvBaIB9idEpPhUeqNtoZBp0jzql0cOeirhP6Vzp2GcV2N46fyRn6jaq95IDexjmlq7d3GfAbsJukxtZzGTwF2t170d2oAdh8B7DcKYL9RAPuNAthvFMB+owD2GzXk3lV/XvA3D7o11F8p+ANBIBAIBAKBQCAQCAQCgUAgEAgEAoFAIBAIBAKBQCAQCAQCPa3/AXAMvzKVkYHyAAAAAElFTkSuQmCC;" parent="1" vertex="1">
          <mxGeometry x="796.4" y="511.64" width="91.58" height="34.72" as="geometry" />
        </mxCell>
        <mxCell id="XOACGdIlgl1HNSo2p2i9-4" value="" style="shape=image;verticalLabelPosition=bottom;labelBackgroundColor=default;verticalAlign=top;aspect=fixed;imageAspect=0;image=data:image/jpeg,/9j/4AAQSkZJRgABAQAAAQABAAD/2wCEAAkGBxEQEBASEBISFRESGBgRFRcVFRMSFRIWFRYZGRgZGBcYHiggGBolHBUXJTIhJSkrLjIuFx8zOjUtNygtLisBCgoKDg0OGxAQGzMlICM3LS4wLy0rLS01KzU3Li01Ny03Ly03LS0rLS03LTgtLS0tNy0tLS4tNjYtLS0tNy0tK//AABEIAIABiQMBIgACEQEDEQH/xAAbAAEAAgMBAQAAAAAAAAAAAAAABgcCBAUDAf/EAEcQAAEDAgEGCgcGBAYBBQAAAAEAAgMEERIFBgchMXETIkFRYXOBkbGyMjM0NXKh0RRCUmKSwSOCs8IVJVST4fDiFiRDU1X/xAAaAQEAAwEBAQAAAAAAAAAAAAAAAwQFAgYB/8QALREBAAIBAgQCCgMBAAAAAAAAAAECAwQRBRIhMUGxBiIyQlFxgZGh0RNhwSP/2gAMAwEAAhEDEQA/ALxREQEReVRUMjaXSOa1o5XENHeUHqijtTntQM1cMXH8jHuHfa3zWm7SJRj7s5/kb+7lLGDJPuyinNjj3oS5FFI9INEdplbvZfykrsZMzgpak2hma534dbXfpcAV8tivXvDquWlu0umiIo3YiIgIiICIiAiIgIiICIiAiIgIiICIiAiLyqZcDHvtfC0utz2F0HqirWhz9qKmqgja1kcb3taQOM4gnZc7O5WUgIiICIiAiIgIiICIiAiIgIiICIiAiIgIiICqTKks2Uq8xB2rG5jAfRY1pN3W7Lq2iqOpMovpqnho7YmPdqOwgk3B6Fd0ce1Md/BT1k+zE9vF3M5szH0kPDNk4RrSA8WwltzYEc4vbvUSJUpzlz1krIeBEQjYSC/jF5dY3A2CwvY9iihKu4ufl9fupZeTm9TsEo15aQWkgjWCNRB6CsSViSu5lxC4swcvOq6ciU3liIa4/iB9Fx6fopOq20RHj1g6IvGRWSsfPWK5JiGvgtNscTIiIokoiIgIiICIiAiIgIiICIiAiIg+OIAudQC5H/qekMzIGStfK84QGccA2J1uGrk5175xeyVPVv8AKVUOZPvCk+P+1yC71q5U9RN1b/KVtLVyp6ibq3+UoKTzW9tpesb4q9lROa3ttL1jfFXsgIiICIiAiIgIiICIiAiIgIiIPOd5a0lrS4jkBAJ7TqXMly2WxySugkDIyWmxY4lwfgsADcm66641RSSGnkaGnEZi8DVrb9oDr/p1oNuvypHDE2U3c15aG4deLGRYjosb7gt26jlVk6VwkZg4kQPA6xxzI4HswNBaPiKkVkCSQNBc4gNGsk6gAojlHSDTRuLY2PltquLNZ2E6z3Ll6TcsOxMpWEhoAkkt94n0Qejl7uZQElX8GlravNdQz6q1bctVinSWz/TP/wBwfRcR2cGTiSTk4XOs/wAT/hRMlfCVZjT469vOVec97d/KEr/x/Jv/AOaP9z/hamVMs0MkL2Q0IjkNsL8d8OsHZuv3qOkrElP46x8fvJ/Jafh9oCViShKxJXUy4iFgaJX2dWnmbEfnIp7/AImPwnvUA0Uj248mGMf1PqpWSvJcc1mXBniMc7bx8IbvD8VbYurtU9c15tsPMeVbSjOK2xSGllxsa7nGveuOG6+2o3pfvH5TZ8MU6x2eqIi1lYXCy5nbS0l2veXSD7jLOcN+uw7SvmfFbJBQyvicWv4rQ4bRiIBtzHpVaZkZJjrKvBNiLQx0hANi4gtFidtuMg71VpOeT/Cp2AcmN5cT2ABeMekuoB40MR5wC9p8VYtBkqCAWhhjYPytAJ3nae1Y5UyRBUsLJo2uB2GwxN6WnaCg5ebWd8FbxBeOYa8DiDf4Xfe+RUiVE5XoZKCqcwOIdE4OY8aiRtaVcWbWVRV00U33iLPHM8andl/FBhnJnDFQxtfK17sZLWhoGsgX1kkWC0sz85nV5nJjDGxlgaL4icWK9zq5guNpb9TTfG7yrx0RejV74/B6Cw0REEPzlz4+xVBh4DHZrXYuEw+kObCVIMg5S+1U8c+HBjBOG+K1iRtsL7FV2kv3g/4GeCsHML3fTbj5ig4Wd+egifUUnAX4uDHwlvSbtw4ennUAyJlD7NURTYcXBnFhvhvqI22NtquLOXJ0Bp6mQwxGTg3HEWNLrhuo4rXVT5nxNfXUzXtDml1iHAOB4p2g7UE3yXpFE88MX2bDwr2x34W9sRte2DWpjlT1E3Vv8pWEeSKZpDmwQhwNwRGwEEcoIGorPKnqJurf5SgpPNb22l6xvirXy1nfSUpLXvL5B9yMBzhvN7DtKpqhikfJG2K/COIa2xwm52a+RWXkLR3EwB1WeEedZaCQwdu13yQakuk8X4lKbfmkse4N1d66mRNINPO8Mla6Fx1AkhzCebFqsd4XafmxQluH7LBbZcRtDv1AXv03VU55ZA+xVGBpJieMcZO217EHpH7hBdiKK6OMqOno8LyS6E8Hc7S212/LV2Lezxy59ipnPFuFfxIwfxHlPQBrQYZx52U9FxXkvlOsMZa46XE6mhQ2o0mz34kMTR+Yuce/UuPmrkV+Ual3COcWjjyvvdxvsF+c/srcyfkmnp24YYmMHQ0XO87T2oIHQaTXXHDwNLeUxusR2O1HvCneR8rw1cfCQPxDYRsc08zhyFc3OLNOnq2OsxrJtrZGgA3/ADW9Ib1VmSsoTZOqidYcx2CVnI8A6x9CgvNec8zWNLnuDWjWSSAB2lY0dS2WNkjDdjwHA9BVS6RcoSvrJInPPBR4cLNjRdoJNuU69pQSzK2kamiJbC10xHKLMZ+o6z3LhS6S6k62wxBvTjPz1KR5lZtUraaCcxtfLIxshc8B2EuF+KDqG/apWY22tYW2bAgrmg0muuOHgBbzxusR2O1HvCnuS8pxVMYkhcHNPYQeYjkKg2kTNaJkX2mnYGFpHCNaLNIOrEANQIO3euToxrnMreCBOCZrgRyYmjEDvsCO1BbaIiAiIgpTO+p4SuqTzPLB0YOL4grjErfzgaW1dUD/APdIe95P7rnErcp0rDEt1tMhK+EoNeobTqCsfN/MiGJjZK0Y5HaxFfis+L8R+Sh1Gpx4Kc+SdoSYsNsk7VVsSsSVdX2GlGylh/SPosTR0v8ApYf0j6LIn0g0nxn7T+l6OG5FKkrKCJ0jg1jXOcdQa0FxO4BXMaSl/wBLD+kfRe0MrI/UwxR8l2tF+9cW9IdLEdN5+ku68Myb9XMzYyOaCkLH24eYh7xtwC2pvd4lbZK+yPJNybkrzJXkNdrLarLOSfo2sGGMVIrASuzkR92Ecx8da4ZK7GQPRfvHgpuE2mNVH97+Rqo/5y6qIi9ay0Z0je75d7PMFC9Fntzupf5mKaaRvd8u9nmCheiz253Uv8zEFtIiIKv0swAVFO/8cZaf5Hf+a6GiSpJZUxfhc14/mBH9q1tLp49GOXDL8zH9CsNEY/i1R5mxjvLvoUG/pb9TTfG7yrx0RejV74/B69tLfqab43eVeOiL0avfH4PQWGiIgp7SX7wf8DPBWDmF7vptx8xVfaS/eD/gZ4Kwcwvd9NuPmKDfzi9kqerf5SqhzJ94Unx/2uVvZxeyVPVv8pVQ5k+8KT4/7XILvWrlT1E3Vv8AKVtLVyp6ibq3+UoKTzW9tpesb4q9lROa3ttL1jfFXsgKvNLo4tIeW8g+TPorDVe6XfRpN8ngxB6aJPVVPxt8q5WlarLqmKL7rI8fa9x/Zo711dEnqqn42+VcLSiwivB54mEfqeP2QSXRTTBtJLJyvlI/lY1tvmXd6myh+i14NCQPuyvB7mnwIUwQFUOk2lEdeXD/AOWNsh362HyDvVvKqdKzh9siHKIW/N7/AKIJRowqzJQ4SfVSOj7CA4eb5KCZ/e8aje3yNUy0TxkUszvxTG3Yxn/exQ3P73jUb2+RqC0s0fYKTqmeULrrkZo+wUnVM8oXXQcTPUf5fV9Wf2VaaO/eMG6T+m5WZnp7vq+rKrPR37xg3Sf03ILmREQEREFO6QqTg6+U8kgbIO0WPzCjJKt7PzNs1kTXxAcPFew2Y2na2/Pyjt51UlVA+IlsjXMcNRDgW+K1cGSLUiPGGXnxzW8z4S7uYFK2XKEIdrDLy26WDi9xIPYrPnku4lVtozcP8Qb1b/2ViPOsrzHpLad6R4dWnwyscsy+ErAlCVgSvKbteICViSvhcsC5c7u4h9JWBK+FyxLlzukiAlSHIsWGIH8Rxf8Ae5cWio3SuAscPKeYfVShrQAANg1Bb3BdNbmnNaOnaFPWZI2ikPqIi9GzkZ0je75d7PMFC9Fntzupf5mKaaRvd8u9nmCq3IMdUZSaPHwrGl/EIDsIIB1H0to1IL4RVpRaR5o+JVQBzm6iReN3a0heeVtJMr2FtPEIiRbG4h7m7ha196DQ0l5QE1bhabiFoj/mJu7xA7FKNFlAY6aSUj1ztXws1eN1C82M2Zq6QEhwhvd8hvr5w0n0nHnVy0tO2JjI2ABjAGtA5ANiCEaWmHgKc8gkN+1q0dEtS0PqYyeM4MeOnDcHzBTfOPJDaynfC42J1td+Fw2H9txKpyopqrJ04JDo5WG7XD0XbjscDzIL2RVvRaTXBtpoA53Ox2EHsINl5VukSom4lLBhcdV9crhuAFkHL0l+8H/AzwVg5he76bcfMVUmWYalst6sP4WRok45u4tJIBPN6J1dCtvMP3fTbj5ig384fZKnq3+UqoMyj/mFJ8f9pV2zxB7XNdscC07iLKk8rZJqMm1IdY2Y/HFJbiuANxr5DzhBd61cqeom6t/lKi+Q9IEM7oonxyMlkcGC1nMxE223uBfoUoyp6ibq3+UoKTzW9tpesb4q9lRGax/97S9Y3xV7oCr3S76NJvk8GKwlXul08Wk3yeDEHpok9VU/G3yppWyaXRxVDR6smN+52w9/ivmiQ/wqn42+VTmspmTRvjkAcx4LXA8oKCu9FGUg181O4+naVnSQLOHdbuVlKm8vZuVOTphLFiMbTijlbrLeh/Md+ojtUhyfpMbgAnhdj5TGRY9h2ILDVJZ714qK6ZzdbWkRN6cAsbfzX713MvaQZJ2GKmjdHj4pde8hB5GgbCtjMbMt+NtRVtwhpxRxu2kjY5w5AOQIJhmhk001HDG7U62N3xONyOy9uxVfn97xqN7fI1XSqVz/AD/mNRvb5GoLTzR9gpOqZ5QuuuRmj7BR9UzyhddBxc9Pd9X1ZVZ6O/eMG6T+m5WZnp7vq+rKrPR0f8yg3Sf03ILmREQEREBYPha70mtO8ArNEHmyBjTcNaDzgALhSHWd6kKjkws5wPISsLjm+1J+f+Lek7yxJSKXC4OFjbn2LAlYErz0Wms7x4L3Lv0bxyo78LO4/VYnKzvwM7j9Vq0wBewO9EkXXZypAwRONgLbLC2tauntqs2K+SMm3KgvGOlorNe7HJdVwpfia0YbbBz3+i6HBjmHcFyM3W+sPJqHdf6rsra4da2TTVtfrM7+cqmoiK5JiHwBfURX0AiIgjOkb3fLvZ5goXos9ud1L/MxTTSN7vl3s8wUL0We3O6l/mYgs+tyXBP66KN/xNB+a0oc16Fhu2mivt1txW3X2LsIg+MaALAAAcg1BfURAXlUUzJG4ZGNe3mcA4fNeqIOQ3NihBv9lg/2227uRdCnpI4xaNjGj8rQ3wXutXKOUIqeN0kzw1g5TynmA5T0IKr0nvvXnX6MTG7tbj/d81YuZ0eGgpQdvBg9+tVNWyvylXOLGnFO8NaPwtAAF9zRc7irtpYBGxjBsY0NG4CyD1WEsTXizgHA8hAI7is0Qc6PINI14e2mhD2nEHCNgII2EG21dAi+o7CvqINdlDECCI4wRrBDWgj5LYREBeU1Ox9sbWutsxAG3evVEHnDTsZfA1rb7cIAv3L0REHwi+o7FzKjNyjkOJ9NCTz4GgnuXURBo0WSKeH1UMTDztY0HvW8iIC8JKKJxJdGwk7SWtJPavdEGLGBoAAAA1ADUAskRBjIwOBDgCDtB1gryio4mkFsbARyhoB7wvdEBERAREQEREBaVdQCTWDZ3yO9bl0xKLNhpmryXjeHVbzWd4R2aikbtaezWtVwI2g9ylZevmMLHvwOkz6t5j5xv+luusmO8Iq2JztjXHsK3oclyvtwhIaOc3PYORdzGF9xqTFwXFX27TP4fLay09o2Y08LWNDWjUF6L5iS62K1isbR2VJmZneX1ERfXwREQcTPHJslVSSRRAF5LSATYGxB2qG6Pckz09e4TRPZ/CeASOKeMzY7YrNRAREQEREBERBWWV84crcNLFGxwDHuaCyEm4B1HEQRsstGHNHKVa8PqCW/mmdcgflYNm7UFbaIOFmzmvDQt4l3ykWdI7aegD7o6F3URAREQEREBERAREQEREBERAREQEREBERAREQEREBERAWJWSIPMlebivchYliDWcSvMuK3DGseCQaocVm1xXvwS+iNB5tK9GlZBiyDUHwLJEQEREBERAREQEREBERAREQEREBERAREQEREBERAREQEREBERAREQEREBERAREQEREH/2Q==;" parent="1" vertex="1">
          <mxGeometry x="796.4" y="462.85" width="95.62" height="31.15" as="geometry" />
        </mxCell>
        <mxCell id="XOACGdIlgl1HNSo2p2i9-6" value="" style="shape=image;verticalLabelPosition=bottom;labelBackgroundColor=default;verticalAlign=top;aspect=fixed;imageAspect=0;image=https://upload.wikimedia.org/wikipedia/commons/b/ba/Pytest_logo.svg;" parent="1" vertex="1">
          <mxGeometry x="802.02" y="554" width="90" height="90" as="geometry" />
        </mxCell>
        <mxCell id="XOACGdIlgl1HNSo2p2i9-7" value="" style="endArrow=none;html=1;rounded=0;entryX=0.5;entryY=1;entryDx=0;entryDy=0;exitX=0.5;exitY=0;exitDx=0;exitDy=0;" parent="1" source="XOACGdIlgl1HNSo2p2i9-24" target="XOACGdIlgl1HNSo2p2i9-2" edge="1">
          <mxGeometry width="50" height="50" relative="1" as="geometry">
            <mxPoint x="820" y="684" as="sourcePoint" />
            <mxPoint x="826.06" y="664" as="targetPoint" />
          </mxGeometry>
        </mxCell>
        <mxCell id="XOACGdIlgl1HNSo2p2i9-8" value="" style="endArrow=none;html=1;rounded=0;" parent="1" edge="1">
          <mxGeometry width="50" height="50" relative="1" as="geometry">
            <mxPoint x="554.66" y="684" as="sourcePoint" />
            <mxPoint x="1100" y="684" as="targetPoint" />
            <Array as="points">
              <mxPoint x="794.6600000000001" y="684" />
            </Array>
          </mxGeometry>
        </mxCell>
        <mxCell id="XOACGdIlgl1HNSo2p2i9-9" value="" style="endArrow=none;html=1;rounded=0;entryX=0.556;entryY=1;entryDx=0;entryDy=0;entryPerimeter=0;" parent="1" edge="1">
          <mxGeometry width="50" height="50" relative="1" as="geometry">
            <mxPoint x="554.66" y="714" as="sourcePoint" />
            <mxPoint x="554.66" y="684" as="targetPoint" />
          </mxGeometry>
        </mxCell>
        <mxCell id="XOACGdIlgl1HNSo2p2i9-10" value="" style="endArrow=none;html=1;rounded=0;entryX=0.556;entryY=1;entryDx=0;entryDy=0;entryPerimeter=0;" parent="1" edge="1">
          <mxGeometry width="50" height="50" relative="1" as="geometry">
            <mxPoint x="690" y="714" as="sourcePoint" />
            <mxPoint x="690" y="684" as="targetPoint" />
          </mxGeometry>
        </mxCell>
        <mxCell id="XOACGdIlgl1HNSo2p2i9-12" value="" style="endArrow=none;html=1;rounded=0;entryX=0.556;entryY=1;entryDx=0;entryDy=0;entryPerimeter=0;" parent="1" edge="1">
          <mxGeometry width="50" height="50" relative="1" as="geometry">
            <mxPoint x="952.1599999999999" y="714" as="sourcePoint" />
            <mxPoint x="952.1599999999999" y="684" as="targetPoint" />
          </mxGeometry>
        </mxCell>
        <mxCell id="XOACGdIlgl1HNSo2p2i9-21" value="" style="rounded=1;whiteSpace=wrap;html=1;" parent="1" vertex="1">
          <mxGeometry x="490" y="714" width="135" height="120" as="geometry" />
        </mxCell>
        <mxCell id="XOACGdIlgl1HNSo2p2i9-14" value="&lt;b&gt;CI/CD&lt;/b&gt;" style="text;html=1;align=center;verticalAlign=middle;resizable=0;points=[];autosize=1;strokeColor=none;fillColor=none;" parent="1" vertex="1">
          <mxGeometry x="527.5" y="726.5" width="60" height="30" as="geometry" />
        </mxCell>
        <mxCell id="XOACGdIlgl1HNSo2p2i9-23" value="" style="rounded=1;whiteSpace=wrap;html=1;" parent="1" vertex="1">
          <mxGeometry x="885" y="714" width="135" height="120" as="geometry" />
        </mxCell>
        <mxCell id="XOACGdIlgl1HNSo2p2i9-24" value="" style="rounded=1;whiteSpace=wrap;html=1;" parent="1" vertex="1">
          <mxGeometry x="764.0799999999999" y="714" width="110.92" height="120" as="geometry" />
        </mxCell>
        <mxCell id="XOACGdIlgl1HNSo2p2i9-25" value="" style="rounded=1;whiteSpace=wrap;html=1;" parent="1" vertex="1">
          <mxGeometry x="630" y="714" width="120" height="120" as="geometry" />
        </mxCell>
        <mxCell id="XOACGdIlgl1HNSo2p2i9-15" value="&lt;b&gt;Cross Browser&lt;/b&gt;" style="text;html=1;align=center;verticalAlign=middle;resizable=0;points=[];autosize=1;strokeColor=none;fillColor=none;" parent="1" vertex="1">
          <mxGeometry x="635" y="726.5" width="110" height="30" as="geometry" />
        </mxCell>
        <mxCell id="XOACGdIlgl1HNSo2p2i9-16" value="&lt;b&gt;Cross Platform&lt;/b&gt;" style="text;html=1;align=center;verticalAlign=middle;resizable=0;points=[];autosize=1;strokeColor=none;fillColor=none;" parent="1" vertex="1">
          <mxGeometry x="764.54" y="726.5" width="110" height="30" as="geometry" />
        </mxCell>
        <mxCell id="XOACGdIlgl1HNSo2p2i9-17" value="&lt;b&gt;Allure Report&lt;/b&gt;" style="text;html=1;align=center;verticalAlign=middle;resizable=0;points=[];autosize=1;strokeColor=none;fillColor=none;" parent="1" vertex="1">
          <mxGeometry x="899.0999999999999" y="726.5" width="100" height="30" as="geometry" />
        </mxCell>
        <mxCell id="XOACGdIlgl1HNSo2p2i9-26" value="" style="rounded=1;whiteSpace=wrap;html=1;" parent="1" vertex="1">
          <mxGeometry x="1030" y="714" width="135" height="120" as="geometry" />
        </mxCell>
        <mxCell id="XOACGdIlgl1HNSo2p2i9-19" value="&lt;b&gt;Useful Utilities&lt;/b&gt;" style="text;html=1;align=center;verticalAlign=middle;resizable=0;points=[];autosize=1;strokeColor=none;fillColor=none;" parent="1" vertex="1">
          <mxGeometry x="1042.5" y="726.5" width="110" height="30" as="geometry" />
        </mxCell>
        <mxCell id="XOACGdIlgl1HNSo2p2i9-27" value="" style="endArrow=none;html=1;rounded=0;" parent="1" edge="1">
          <mxGeometry width="50" height="50" relative="1" as="geometry">
            <mxPoint x="1100" y="714" as="sourcePoint" />
            <mxPoint x="1100" y="684" as="targetPoint" />
          </mxGeometry>
        </mxCell>
        <mxCell id="XOACGdIlgl1HNSo2p2i9-20" value="&lt;font style=&quot;font-size: 10px;&quot;&gt;Custom Logger&lt;br&gt;Capture Screenshot&lt;/font&gt;&lt;div&gt;&lt;font style=&quot;font-size: 10px;&quot;&gt;Loaders&lt;br&gt;Parallel Execution&lt;/font&gt;&lt;/div&gt;&lt;div&gt;&lt;font style=&quot;font-size: 10px;&quot;&gt;Pylint&lt;/font&gt;&lt;/div&gt;" style="text;html=1;align=center;verticalAlign=middle;resizable=0;points=[];autosize=1;strokeColor=none;fillColor=none;" parent="1" vertex="1">
          <mxGeometry x="1042.5" y="746.5" width="110" height="90" as="geometry" />
        </mxCell>
        <mxCell id="XOACGdIlgl1HNSo2p2i9-28" value="" style="shape=image;verticalLabelPosition=bottom;labelBackgroundColor=default;verticalAlign=top;aspect=fixed;imageAspect=0;image=data:image/png,iVBORw0KGgoAAAANSUhEUgAAASAAAACvCAMAAABqzPMLAAACc1BMVEXt7e0DmsUjuOoBi7Y4TFIAqdW+2+D///85Rko5SU0ivO8lb4kAnckombzy8fHz8/OGkJMvRUzS6OwqbX4qQUi0urx7honGysskPEQWjK8Ak7hicHXl7vCkrK48Pz8ydrwoZXvi5ORte4AAxvoriKUsZnchfpcloMMksNsgwO0kc4kkstoZgqQajawLo8oee5oxWmZ3jJOR0OlPXmM0XmzC4vDb5PBJzfcAqdmyyND/zkIVa7fc+f9w2v5AVVyJiYl7e3u7wMLW1tZeXl5xcXHeU0dUiMSor7H/AADi9v+dnZ1GRkZMi/UXoF6W3voc0f8AAADdhyjOTifGRyiLp9KcAAAXufmxAAD6GCvjEiX/S0uk2uiw3/aWkY8LmhiosKgOshxqkGt6j3mPno9ZwF5LiUaCr4CDyYQXkRxFjT5ro2dor2YWdRVgb2AzYTEsLCwbGxuZwtiFwt5bm7SDyOf1zszmg3zcRDZRgsHhZVv43txoruM3oeB8otDbSDvZNSL0wpyCsbLTuavzx7LAOQCGaIKbdnOjkH7wtwAjldPq68nUon6uxeHbZT3idkziq6HSWRTmlxfEllUAi9v/8aj998ODc07lk4ruzpLorSfXWw7fdSAiUaD97nqMyae4Rjj/2YEFOI3SzXP/8o797U5ftYRUkvf/01v8pQBHXZAnQYIVJGS2rFNvTWMMFlX/7zPIoA/G28WPr/nDbTlGQWDTpT9yDTkAA1ZeUzmLpEyLQTgACUhQKDzRjSwAgEahTTOFFgrRvkCXLC6kY2Bjrf77oqbWb3OlQXC3epbIZWUnbSYtgeC5KzL3trRNaEzaAABGasitbEzUAAAXPElEQVR4nO2di0Mb15XGBxhZGoFmJBhpJISAwUgMQgg5kgkYZ0ACo3iw17GN4ydpHpt0s0lqm/gVYju7aZoNCVvjJWmSOs9t626dbrJ19tls223jdDdLUvtP2nvuPDSSRm8hZK++KBjkGWbm53POvfece68IoqGGGmqooYYaaqihhhpqqKGGGsolOq82++42XzTny6N4gxDjcztyyt232be3+WJ8DjKnHK7Nvr3NlwyIMlIDEAgDinQYKEY1ABEyIEv/vq3ZGrA0ABEqoK3bT5zYjv7Ty9YABFIAmc3c5AKSJCWTzoSZN5uZzgYgkAoomUQ/8DyfQHJOPfKdBiBFKqBJoCOL/s4jjz7WAKRIBbSQwHrcyfNP/Pmjj5vNRAMQlmZBHMj55FPxJ777F1K8AUiVCmgq7kTiFp7+y2eedXK+BiBVGqCk5ExKyfhzz34vHk9KDUCqVEAzC0w8wS9IyecQJwkBSjQAYamAppPE5MzUJApFqC+0gABxDUBYKqC5ad5MSDO8NMUjTA0X06QBOtk9kzRPMRxHTCFxfAOQLBXQSYmfmzbPMNPdk9MzUyenuQYgWVoMOhUnCOnkJJHgEKBTU0QDkCwVkPOhh06dOjk3Nzc9PTMzPcc1YpAiFVBCQlxUTXGNIK1KS3cgMVg0zcAP9L0KKH+dK0sKoNOn71s8vYhezz+/eOY0ep1evFcTZnhMVbzidgzIQNUAxFTlkaorr5stSQ6SpILhgWz1VyFp70rUX+XRm6fOlUuUxUCVl31ou5t01p0RYUBGZdLc5S/jv6i4cMj4WJJkpXojhABRsW0GipCk30Ad6P2IvzdbkQoBMXEW2LMuor7cDAB5zAZqpSwDW+/P0tYARQWEoSwJw5UFaTqh1q+9fF0R0gE6e27X+fO7zp1NAXoAf7f7xH1nTmxXuG0NWCwBE/6JWZm9cGF2vgu+3z5WKaA+cOoIRLJoXYVqDdDSC+cv79q16/Lll3Yt6QGNvnjx4osvoi8ndmuABAA0PzHRA5q4hH4YN1UGiHYiB7P0N8csiJBYT4RUQEvnd8m6jBCd1QD91UpPz/N/jQhdXJ5tf1kPaBbhmcCMJi5UDoiIotDvt1qbO4BQtI68TAG0dFmlA3ppSQH0/Vd+8OrfvLZ88eLF5Z5Z5+tvpABdQmzmV1ZWMKdLlQKicYQOW5ubm/0WHIeq+YwVSQH0FHav8+fOHfhb0A8VQFdWr127+ndra8vLyz0TK2+++ZYKaHSiZ8U8asaehgiNVgiIgdsIAp9m2Yb66saEZEBde390edf5t7tWVrreeffdd3e89roM6IcI0G/2//gaONLEe2+9/74KaHYWORkGZAYvm68MEG7CLGEZECbE2uulPyQD+mDv3g8vnxvdg7Tyzg6kjzCgoR8jQPv3v4H86b333vv473/yUwXQiUsQhOR2bRYBmq0MEJN0o95Ys6oYtGX10qeWAf1s797HDhPXAdAe4jUE6OcqoNVr+//hF4jOezc+mX/nJ78/uw8DOm02r0z0zGLhpmy8sn4QauMtAasKSIDWnqyTQK0B2vshNqA9e0bBgnaYRwDQKwdWVw/euIHw3LjxydRP3//l9/eprVhPmioDxIuoDRM0C7KGwYS89QboSSINUKsC6ODqP3788S9ufPLJpz/a8dk/va62Yl1yK6+qIkA0B/P6mlOy9kOgTtYFoRSgvb+6CXyuv75DczHhlQMHDqxe+/zzq1f/+ZMv/uWzz65qzTxqxnq6RjVVFINgmEp1WPWE/MiGonXR1suAfgWA9jKI0M2unwOgNzGg+w8eRIQOHDz4r//26af//tqOq2/oAU0wqZFbRYBonIXTA2oWYFRWFy2Z0g/CgPZ+wPMf/AfweU3pB70NhFZ//ekXX3zxn7+5un/1SqonjSzokoqnq8KOIorRlC0NEHYysR5MSAH0wV5Fv8UR6B0FEH0YE1r93e8+v7b/2up/LaUAXUIxCPeEulZm5ysDxHuhG92cJkGsk+SQOhb7mcLnl3IEUsdiZw9hL1tFzf3q6itndWOxUTwMk1UpIARDFNIBYROKVvdZy5I2mpcJPQn+9VFqNM+8euibg3IkOnCQSxvNr0yobXzFgJABic0ZgijExjffhFL5IAjUv/09AvSWLh/EJBb+cAhZ0cGDr/xa4hk9IPNoz4Qyoh+tEJDDAJA1CFWA2rX0uQpd+oxi1wdPffTm67qMIuSDCE569csvv3xVStAZCTOEaGV+fn5lNNWKlbeMDABFrJmAoLco1oQNFpdDkIfx3Gcg6Enf/2dZki3oTObRZ3BHsS/HRRL5780QUHMzikwOrlYmxJNuY0GNItBpoA7KMhxOqU35QwhSVKst+/CmERge5LiIN38owS4mZAFCPsYm8ZlQ0lUL3RsFKFpGnavU93OuI+srAMigFUM+5rFAXxER4eM+yY7lS3L8xiz9VAHB48lftD9z179yPnOuehlp8Nup4gBl9oMQIBs61RuXvKTDwarVOtbBiq4kV31EGJDfaJ2XSFL+oIEi6H2j4yMkGTM6Ho2eDNeRofcLAcJN6UBWEDKRck0zyyBZ0ouajOoyAkBUWMhWcwwF43379m3VXsofAcpiE8ZApqEhONKEf0CRwRLavlPR6G71uwcGLFTQ4PcLsI6sACDGhcZinixAgs5iNUdWLJUl+xJV7SNhQE1joRZ4tYTQqw292kJNQgQKhLbwYHhga9g2KNgGB20CegGgzjHcmK/cvPXirVs35QSrCQDtxHWir448iPSCXEd7wGahOkxtw6awx2TytJk8TabOTqHTY+osApDE6vNl6YAQEjHWEQp5kEKhjl6RlMOdg3VVE5EMqJ0xMzyBGgN1lMmYhzCgSMdWfwS14IO2k8JQ98Bgt00GhA4cvX5L0c00QF89+OCRI7cPHTp0+I8pQKHu8HB32NTdb7KMDMVizR0RoRhATuRi/qxWTAA6kVZEe8ykaczU1N9KylMBSF/1RrMyoN1maVJamJycnEL/T/IJNHaQAfkB0L4ANWjrxoAoDdDodQ3Q9es6QOcQniNXEokvEaJvUoAoHaDeYgERkLOnspoxwUK22sZMgilD6I1QDJsRW73xvgIo6WRSfduZR54uBMjM7Ll+a+3iw6AL/339pgboK8TnKC46Xzl8+PCHGiBLWYCgbJgdhIThbDgao84Y7j9Ui48KSIIVcAlYJ8gTTzz66GMFLegm5mMdtFr/5/barT2jCqAlxOfBJdlNv0aErlQGiJYyU4pyM5ZHgoeqakdbBaSsg3sc1sE98hx6PCEvIP7WrfWLDzcP7ht64cHZtbVb8wqgc8i/XlDi2NLtl166XCEgSEqTmT6Wj4/JhKfbVK+pVwGhgVE8zv3pmSee+u6zTqkgoNE9a2sXx4YGtx27/YOHL66tr5kFDAji87dqpD//0vnbS5W5GA0+ltGO5XIvWSOQ1q/iJAcVkNOZTDqd3Peeefp/49xkQUArF9YB0PFzt78ZGlteX59lANDw6O2jR28TKqA/Hj1/9NsKASXZzNFGfj6dVJVz1iogCTlZUkomn/1T3JmcAkCxvIDW19eWx4YY7kNbGACt0SlAWl/h7aPHKgWERxvpJpSXT1ikqpyyVgAtTDKSxE9K0lTSh77Acve8gLg76+vLy12cNBBuW15LB0SrgM4dqxwQI8H02bC1OD4mKE67q5puVAFNmbmFGegCOScXFsCC8gNKXOhZX9vObescaGoCQPNKDAJAZ1VAu44dO3K2QkDyDUaK5NOLpzdUdTCmAppb4M3ETCI5zaP+4kzBGETMr6+/yI20tLQsIz49dzilFfsaAXpb4UMfOXbsWIX9IGUOp6WjaD5V7AKlAeqeOTXH+4h40jk5MzUtcUx+QEzizrpvomcZ4Vlbv3DnEqEAOov6PocVQF8hPl9VDAiPWElLsGCAFjpFagOmWCmAJqfNSck85eTmuJmZqbluZwFAZiZ+B4Wh9YmJdWQ/6wmtJw29w6/lbhAYEFMpIIaXIClEdkOBNW8DFrTAGMNbXTypocZDc0nnVPecM+GDhYIzfMGxGAGEetYRpTuzidRYjPnm8KHDX6M4/S3Cc2SpsqEGTfNSVJ65PlzAfjx4Zgxb/b3AFED83EMPnTrZLS+Em5vmCsUg1JQzifkLd5D1zDp5/Wie+QMM5FF8RloyVwCIZmjOLuKsmCWGm7E8eGJ4GM/aq85HBUQn4rDMXZJgNJ/kM4O0JcvFcBSGTV54pV+Yyge9DIgOHT70KqNLd2SN5vPng2iG4HxROWloEYetufkIY+GRiDKE34hyopruUJbBEZAUYuB7uaPYEdga9G/tjwwOiMIQGR6MyIBMwdahQEzoj5kGRJsp5hFi/YIGyGwmXr7ysjJiVQB5IuFhMWwih02xkNDbKwT9MiCDFpmmGZ6P2xU6CE+/YDVswATkcmFPa0ROJjpIe+VTz7qyRcgpV5w8RZfsbBPwhdFXDMhAAEg+WD5S+Q4A9avrEh5AUpcoACAh42A43oYtKONuCNQR87m8JOtQyioRBY/Kp3Mk5BkGeUIjQT8yHQWPowppRMbnNRD8+n5PtjojJBUYsNnkl03+Bv7voKiAwfEeP0UF5SPTFaComNHxARgUZNxMVGRZhwIH0SGDNqs1rQMkxCD9jJXKQztY0p5gKu8eMi7WeHWTcT0r1/vl1MVy1ssMbkbNxpMdyHisGR3ENktmJcPhEF1JojqljL4y1sjVXogNJcaCthQdXfzBZdpULYyMeu0cXwXjkQXuZPiPXC+CYqLoD9oGEBzjAXwEPYLsjXa7lOQSfDVrzrhGqIUbg2ix6QqbhGarNR1OGh8PzL/rYuSSfNVLzbjSraW75TupM2UmnzMHqFCN3bgZnDBfK6JVkgzvpR6l49MEgX3jJr7wbgTIdLcB0vEZw+X8jZsYxLMIkHCXAdJ3nZuQ/bAbOHMKAaJSgLLnJdWj0sYWQZj2UkUgmajTAW32oxej9PxGGAwoaRiiy7Iq3plxWpUBGTc5uQ4u6WhFGfkfMCDjCdJ0vJw0ImOX0glV1cWspv4Sntk6EC6dUAaf3AbEOMuaWM5Ibnua7VUTkLU5ZrEV/cwwc1colVA6HpOQ04BoX5kfKuB1sF59DRa3YqZsQFbBHyzx7q1QgLIEinQzaz9FUmLxPLFMQijSpDMimB1tZEA072LLKhUyHAtZJInXfieedZyacqTeffMwGqAV+6z4DKvQj6dhKpnQQoebOvAQnAqaSohEprEARZEjWsdfaDVcKMYQScjKOnwld68ZZfoqK/p4Rj4bhhopCzLJdIT+CNy+JWIr7u7RUeEgqSQdKEvQlJ8sghlQJ8VSlD9tiJ5PQpsf35YYCMuMoObuzljPSzO8M8rKv5wrkRDDRdXcBku6nDyBhnYYWZMGCMoowx3qs5IW/3Chu0d/LdiCEf3MZ8rit+Vs0NDxA0HKoj9aDNrweLQA1M5eKkUVMTIJ0InWRyCaoXnOLrLqr3Y4Sxi5IrJ2ferH4RD7fM4EpDsoG7AZQ47WORyMkZT+WSkxOGzCN2jNvGP8Rng44Ccp/SnaaULGWfCDVbAFIplHwxVjgf6wIB9kzbyOwWnoipEgzgMhK6GxN9Awhdwlpk0EZvuKnCSNfgVnJzNTY5BcggIc1RoKBVv9MRH9a2bdPCQ5I/7AsC0s4BAu374QDttsAZgGnWvWPJzW0W8Lq3FfEMI2wJ/jeMiIoesEh20D6oWs8lkDtn50HYOz5Fv1ulySz2d39XlFUUvMph7R4YoTBXJnCA6yu2j2FGv9w1ioLCvIOADuMIIUgy+inDDNc4Z2GilGIvIpuoRxzhNw6k53Ie3SOYWziKzBDHL171nRzvF0Tkg8z0le0Z3nQ4jkG7v7pOEpKNZNeu1x3rDV55N2l8ueT33oMmKrtndWaz3KYI+v3l7gI+Z9NL0QBZ/hOqsudWlQLuHNrppaVDW11Z06W4wEEZp1Fng4vcpOxQIg3YWb6k2GeFpayJptiwOLZ0bqFpCx+bS0wLQ6siabc8FGBlRr6sqdm40kTTnwyA5W+lCiHDGwYVqkPn0sl/nIDlb1aVE5lKjbIJQTT0ukZg6GxMBUDl0Qqhsfy82nNUeWY4MAQRDy150J5XYvHIAcrppts4A33RPrDVBuPC0hiAm13C4IMh6WUF0RymM+cgDayEpYlurPx/LhafHXroVXJG9sqb+H0h4nfOb48cVwjfDgAF3r7fD5jHastIbsPjyRsP1MbfjgAF3rnYJgoXVaX7EUEzreNe51s+Pt7Ys1wNMSwlmOmu//m4DVRfowXTyhoZ3jDoejb2d7e9dQ5XjyBmcQTgLVMkAr6ssI08UTOt4FWf9oe9d4130V8ymER27AfLXnQ8fLNqH2LRDhHVEXmTheGZ2C1qPw2ZTtAPHWUr3lmND2cTkZ7CC5ygAVxiPzqV0POg0QNqGRtNspEhCvZMujFblYEXhwCmjzPu8GPjEjkn5DRT3Z4m477EtFun0VBOli8Mh8apXiyBLNubNMqLje0PYuO+lwkL6dZXtYUXiwf20eH0KecS+m31MhQm1t6Et4e9eWuDOx+3hbeXiKiM0pPpu4GymN+0K9GbeVj46pMxQCKG2LW9rbjy+Wx6dIPCEcnzf3Q0bwh+VkOFkOQlCK8cCuXJZAmWajqDg6Sv95k/kQcpwWM+8tg4ypDfldqDUiyvu6dVQAqEjjaZHHX6h932w+dAJMqLfTk/4vK0caXMAbDo30+iOkWmKnKNFTAzwtrXCxjVh5WqoYnxvPFSApmG8Q04rRvbFYTJ2toC1Xc7DRoKdc+ymBjlIBq4u9kJWPFNImWmTNFFCnC7Ck155s7yo3BVQSHhyeyXr5qDVlhl7aMj9tDgXLullS9PbZfYn29t3tqOXacDoo/OCtJ8VNGL8bCrf1ZNQFC0X1Qj9v2+ZLchxq0Lt2tqsq2YRKpNPS0lsfzVdKDGxdRPrai1NpJlQyHcW9WHs9fQodY4d5wr72LQbKJlTC6KtkOpB9xvsf+jabSbpoIMT6jABlI9peJBxPGXgU84mWOpV34+UCQnZjQpmMCuehy4ID5kPK7lU/4Scl6FE7+gy9LAtSnjjdWUbUSTcfh1gnrXuGeC/EIW9uQDpKxnG6s3w0WLjxIt19fF3yIWQvc4jjBRBhTIstqY3YW1o8ZTpUmmTvqlfzwaJduKNo3JhlaKAKSNLwiBiPoy6jjybclqEBdBGAttiqiWdEHlmw3vprvNLFJPGnOkeLcbMKA04aHrzIxSEmN+zzDKomWl4Z5MjZ3utUNTzKpkhS3QZnvRi+jy3SiMarQCckxx5YfXJX4AHREl4f5CgciY5X6mWhXlKxnqpuPb/RYjgvNiKxsJ9VFKlHtB3HXNXYM6qGognFiKI5BmdVIDSiGA9syHaX4QExCRyJkBX5tuTvFS2WQwdcSzYed9TH13/TZSCajnsVRNvG8yI6XTodUV31RfbFibso9qSL5pPyKmL0GMm8ZlRCp9oz4tfoIAe+C31LL4ZQEbHiNmd7bkhFGVETCjsRbcUgS9oLLiq9C8QwSa+8YBY24PPl9rXnC7FpBcvRtjoUXc57gA4WTXAuZUG6w0FGt42Pb2k3wnTcsDlrQhEn1NobIVNrzlnW64rfnXE5h2gGBSN14TVyjah3mw962TgvpPczDRHORHs8oZHWXlhyrrFxsCzp9SXuFdvRiWESSfiEM61c5kaY+lx2n2/cmRqRtJ/2hEKhkZHW1l5/RF6Ln6o8AmGvxPHMvUcHi2boRBK2N0hVFh1ZdUZdWTaj/EhGXb44X6U9ROtWDMFzPlcUVvOTRQmRcTtEr0uCtev3qOVkCHbLSHCSyxslWTdrYELKhghuBylGvS477B9K3KtelVOwNSif4OI+ux2XqkVV6Fuvtw8+pTLOJRL8Rn6e510ghInAQYVO8FgJ+V30DkP/vybTUEMNNdRQQw3VXv8H2pa6mfLUJuEAAAAASUVORK5CYII=;" parent="1" vertex="1">
          <mxGeometry x="1080" y="462.85" width="271.55" height="165" as="geometry" />
        </mxCell>
        <mxCell id="XOACGdIlgl1HNSo2p2i9-31" value="" style="shape=image;verticalLabelPosition=bottom;labelBackgroundColor=default;verticalAlign=top;aspect=fixed;imageAspect=0;image=data:image/jpeg,/9j/4AAQSkZJRgABAQAAAQABAAD/2wCEAAkGBxIQEhASEhMVFhIVDRUYGRgYFRAXGBYZGhUWGBgaGhYYHCohGSYlGxoaITEiJSkrLi4uFx8zODMsNyktLysBCgoKDg0OGxAQGzImICYvLTcyLTgwLy0tLy0tLS0tLzA4Ly0vLS0vLzAtLS8tLTUvLS0tLy0tLS0tLS0tKy8vLf/AABEIAJ8BPgMBEQACEQEDEQH/xAAbAAEAAgMBAQAAAAAAAAAAAAACAQYEBQcDAP/EAEMQAAIBAgMFBQQHBwEIAwAAAAECAAMRBBIhBQYxQVETImFxgUKRobEHFDJSc7LRIzNicoLB8DQkdJKiwtLh8RZDs//EABoBAQADAQEBAAAAAAAAAAAAAAADBAUGAgH/xAA1EQACAQIDBQcEAgICAwEAAAAAAQIDBBEhMQUSQVFxEyJhobHR8IGRweEyMxTxIzRCUnIV/9oADAMBAAIRAxEAPwDhwgCEAQgHrQos+iKzH+EE/KeowlPKKxPMpRj/ACeBkHZ9YamjVA/DqfpJHbVlrB/ZnhV6T0kvujwkJKIQCRAEIAhAEIAhAEIAhAEIAhAEIAhAJEAQgCEAQgCEAQgCEAQgCEAkQBCAIQBCAIQBCAIQBCAIQBCASIAhAEIBzUQD2w1BqjKiAszGwA4meoQlOSjFYtnmc4wi5SeRe9jboU6YD17O9r5fYX/u9dPCdHa7Jp01vVs35L3MO42lOb3aeS8zLxG8+Eo91TmtypqCPQ6L7jJp7StaPdi8enzAihYXFTNrDr8xMdN9aBOqVQOtkPyaRLbVDin5e5I9lVeDXn7GatTB44W7jm3MFXHlwYemksKVpeLDJ+T9yHC5tXjmvT2Kxt7dtsPd0Jelz+8nn1HjMW92ZKh34Zx80atpfxrd2WUvJmiEyzQEIAhAEIAhAEIAhAEIAhAEIAhAJEAQgCEAQgCEAQgCEAQgCEAkQBCAIQBCAIQBCAIQBCAIQBCASIAhAEIBzUQDom6GyVw9Ht6lg7pmJPsJa9vDTU/+J1GzbWNCl2s9X5L5qc/f3Dq1OzjovNlc3j3hfEsUQkUQdBwL+LfpMm+v5V5bsco+ppWdlGit6X8vQ9cPufiWTMciki4Vi2b1sLCeobIuJR3sl4cTzLadFSwzfiafFYV6TFKilWHI/MHgfMTPq0p0pbs1gy7TqRqR3oPFApsVIIJBB0IJBHkRwnhNxeK1PTSawZfN19u/WAaVW3aBeOlnXnp16/8AudNs6/7ddnU/l6owL6z7F78NPRlc3l2V9Wq93929yvh1X0+REx9o2n+PV7v8Xp7GpY3PbU89Vr7mqEoFwQgCEAQgCEAQgCEAQgCEAQgEiAIQBCAIQBCAIQBCAIQBCASIAhAEIAhAEIAhAEIAhAEIAhAJEAQgCEAoWxcL21ejTPBqgv5DVvgDJ7Wl2taMObIbip2dKUvAu+/eN7OgtMaGo9v6V1PxsPWdBtetuUVBf+XojF2ZS36u8+HqUrY4/wBow/8AvFP84nP2v98P/peptXH9U+j9Doe8e1mwq03ChgauUg6aZSdDyOk6i+u3bRjJLHM5+ztlXk4t4ZEUcRhdoU8ps1uKnR0PUfqNJ8jUtr6GGvhxXzwEoV7SeOnjwZV9tbr1KF3p3qUxr/Go8QOPmPdMW72XUo4yhnHzRrW20IVe7PJ+Rp8HiTSdKi8UYHz6j1GnrM+lVdKanHgXalNVIuD4l63toirhS41ylXHkdD8D8J0u1IKpa764YP59DA2fN07jdfHFfPqUMTljohCAIQBCAIQBCAIQBCAIQBCASIAhAEIAhAEIAhAEIAhAEIBIgCEAQgCEAQgCEAQgCEAQgCEAkQBCAIQCnbnH/bKHm/8A+bS/sz/tQ+voyntD/ry+nqjd/SKNcN0tU/6Jf25rD6/gp7J0n9PyVvY3+ow/+80/zrMi1/vh/wDS9TSuP6Z9H6Fx+kD9zS/H/wChpvba/pj1/DMfZX9kun5RT9m4erUqKKIbtAbgrpl8S3szAt6dWc12WOPobNadOEH2mh03Z4qJTHburOBqwFhbx6+dh5TsKKqRp/8AM03z+fo5iq4Sn/xJpHMMQyl3KfYNRiv8tzb4TjKri5ycdMXh0OqgmopS1wX3L/iRbZ1m4/UV9+Qf3nUzysM//T8HPQzvcv8A2/JQBOTOjEIAhAEIAhAEIAhAEIAhAEIBIgCEAQgCEAQgCEAQgCEAQgEiAIQBCAIQBCAIQBCAIQBCAIQCRAEIAhAOfbMxXY1aVT7lRSfIHUe68loVOzqRnyZHWp9pTceaOgb5YLt8NnTUoQ4tzW2tvTX0nS7Uo9tb70eGf0+ZmDs+r2Vbdlxy+pQ9l1AtagxNlFemSegDgkzm7eSjWg3pivU3a6cqUkuT9Dpe29krihTVmIVamY24nQiwPLjxnW3dorlKMnknic3bXLoNtLNox8TjsNgEyAAG1wi6s3if1MiqV7eyhur7LX54skhRr3ct5/d6fOhTtr7frYnQnLT+4p0/qPtfLwnP3V/VuMnlHl81Nq3s6dHNZvn80MXZmCNeqlIe02vgvtH3SC3outUUFx9CavVVKm5vh6l03yxIp4cUxxqMFA/hWxPyA9Z0O1qqhb7i4+iMTZtNzrb74erKKJy50AhAEIAhAEIAhAEIAhAEIAhAJEAQgCEAQgCEAQgCEAQgCEAkQBCAIQBCAIQBCAIQBCAIQBCASIAhAEIBzUQC+bk7bDKMPUPeUdwn2l+75j5eU6LZV6pR7Geq06cvnAw9o2rjLtY6cTB3l3WZCalBc1M6lBxTyHMfKV7/AGZKDc6SxXLl+iez2gpLcqPPnzNVh94MUiZFqtlAsLhSR4AkXEowv7iEdxSyLcrKhKW84mvZyxJJJJNySSSfMmVG3J4vUspJLBHvg8K9ZslNSzdBy8zwHrPdKlOrLdgsWealSFNb03gi/bD2SmCps9RhnK3duSj7o8Pn7p1FnaQs6bnN58X+Pmpz91cyuZqMVlwXz4in7c2mcTVL8EAsg6Dr5nj7uk569uncVd7hw6G1a26oU93jxMASoWRCAIQBCAIQBCAIQBCAIQBCASIAhAEIAhAEIAhAEIAhAEIBIgCEAQgCEAQgCEAQgCEAQgCEAkQBCAIQDmogDRiCCDYg3BHEGfU2nij41jky4bF3yKgJiAT/ABqNf6l5+Y903LXbGC3a339zJuNmY96l9jfilgsbcgU6htckaOB42sw9Zpblpd55P19yhvXNtlmvT2PP/wCOYJNTTUW+9Ue3uLTz/wDnWkM3Hzfuev8AOuZZKXkvYivt7CYZctMqf4aQW3vHdHvnmd/a28cIYdF8wPsLO4rPGX3fzEqO2duVMUbN3aYOiDh5k+0Zg3d9UuHnkuXzU2ba0hQWWb5nvsXd6piAHJyU/vEXLfyjn5/OSWmzalx3nlHnz6Hi5voUe7q+RZqO6mGUd4M3iXI/LabMNk20V3sX9fbAy5bTryeWC+nviDE7pUGHcLIfPMPUN+s8VNj0JLuYrz9T7DalaL72D8vQrG1dk1MMQHF1PBhwPh4Hw+cw7qzqW772nBmxb3VOuu7ryMISoWBCAZOBwb1mCUxc/ADqTyktChOtPcgsWRVa0KUd6bLRg91aYH7Rix6Dur+pm9R2LTS/5G2/svcx6u1Zt9xYeb9jKO7mGPBSPJ2PzJk72TavRebIVtK4Wr8kajaW7j0wWpkuo5W7w932pmXWyJ01vU3vLlx/ZoW+0oTe7UWD58P0aQTINMQgCEAQgCEAQgCEAQgCEAQgEiAIQBCAIQBCAIQBCAIQBCAIQCRAEIAhAOaiAIQBCAWr6Pv31b8AfmE2di/2y6fkytrf1x6/g2O/GyTUC10Fyi2cW1y3uD6a38/CWtr2jmlVjw16fog2ZcqDdOXHTqUoTnDcNtu3sz6zWCt9hRmbxHIep+F5e2fa/wCRWweizfsVLy47GnitXoWreXbf1YLTpAdoV6CyLwBt16Dw9+3tC+/x0qdP+T8l80Mmys+3bnPT1fzUpFeu1Q5qjFj1Yk/PhOZqVJ1HjN4s34QjBYRWBk7PxVald6RcBeNgSn9Q4e+S0Ktal3qeOC15fXgR1qdKp3amGf3+nEu2zsXTx1Bg668HXoeRHzB8PCdLb1qd9Qakuq+eRgVqU7SqnF9H88yk43DGlUem3FWt5jiD6ix9Zy9ek6VR03wOhpVFUgprieSi/DjeRdCQvuDoJgsOS3EC7HmzdB66CdbRp07G3xl9fF/Mkc1VnO7r4R+ngvmbKptHa1WuTmYheSAkAef3vMznbm9q133nguXD9/U3KFpTorJZ8+P6MSiCCMt83LLe/pbWVYJqXc18NfIsSwa72niWfYO2nzCjWvcmykixv91v1m/s/aM9/sa2vB8ej/BjXtlHd7WlpxXDqjH3o2eEYVVFlc2I6Nxv66+7xlfa9oqc1VjpLXr+/mpNs24c4unLVadP0aQTHNQV4AhAEIAhAEIAhAGqk8BeASIBIgCEAQgCEAQgCEAQgCEAQgCEAkQBCAIQDmogCEAQgFq+j799W/AH5hNnYv8AbLp+TK2t/XHr+Cx4jeCnSxDUKvdGVSr8tRwbp58Jqzv4U67pVMtMGZ8LKdSiqkM/AGK3bwtfvqMubXNTYWPjbVfhPNXZttW7yyx4r5geqd/Xpd159fmJk7G2LTwufIWOe1y2Xle1rAdZNaWVO2x3G8+ZFc3c6+G9hkVOtgzi8dWQtl77XPGypZdB7pgzou6vZxxwzf2WRsRqq3tIywx0+7zPdt0agqhA16RFy+gIHMZevw+Ukex6iqqOPd5/OJGtqQ7Pew73L5wN9tHFUcDRCKo1UhU5t1LeHUzUuKtGyo7iXRc/nEz6NKrd1d5vq+XzgaDcmoRXK8jRN/QrY/P3zJ2NJqu4816YGntWKdFPxLDtPd+niH7RmcHKB3cljbnqp/wTXudm0q89+Tafhh7GZb39SjDcST64+544bdakjo4eoSrhrEpYkG4vZZFT2RRhNTTeTx4exJPadWcXHBZ9fc8N9apCUl5F2J9Bp85BtybUIx8X5f7JdkxTnJ+Hr/ow627DikHVsz5QStrcfum+v95WnseoqSnF4vl7fMyxDacHU3ZLBczcbG2UuFQ1KhGfLq3JB0B/vNGysoWsHUqfy4vkihdXUriW5DTguZW9s48VqpqILAAAHmbEkN/nQTBvrpVqzqQyw0+nE2LS3dKluSz5/XgWfeAZsMxP8B/5h+s6Daa3rRvo/NGNYd25S6+jKng8OatSnTGheqqA9CzAX+M5WMd5pczopPdTZvdqbXOGqvRwoSnSpOUJyUmaoy6Mzs6m+oIt0lipWdOTjTyS6Z9SCFLfipTzb8h4GrTxGLwjYfJTquP2g7PNTWoFa5VLi4I1sCLecQlGdWLhk+PLE+SUoU5Kea4c8CcFgaDYTE1Kj2qDEKMwpE5O81gLMLhvC1vGfYQg6UnJ548tP9iU5qpFJZYcw1MIz4HDFKZZvrFa5VCxtpa5AnxwboxwXFn1SSqyxfBE4DBumFx5qU2U5KGUsjD/AO3WxYfKfIQapz3ly9ROadSGD5+hgbQwXY9j3s3aYWnV4Wy5793ib2tx08pFOG5h4pP7ksJ72Pg2jfbD2caOLWmGzF8EzXtltnpk24nh1lqjT3KuGPAr1am9Sx8TBwuyaVYmnRrl6wUkA08qVLC5CNmJ4dQLyKNGEu7CWL6akkqso5yjl10NSJXJy04LDp2VPClV7WvhXq3I7wfRqIB5d1DceMuwit1UuMk39eHoU5ye86nBNL6cfU0+zcB2oqOzZKVMAs1iTcmyqF5kmVqdPeTbeCRYnPdaSWLZkPs6nlWqlUmkamRiadnpm1xdA3eB6gz26UcFJPLpmjyqksd1rPrkza1MEi7QVKLKpzN3TSutP9le1i3fvr0tJ3TSuFGD8tMvMhU26GM1565+RqsHgFNLtqr5KefKtlzM7WuQBcAAdZWhTThvyeC9SedRqW5FYs9K2zBak9N89KpVCZitmRujLfprx1np0Vk4vFN4dGfFVeaksGliZTbHpLV7Bq57UvYWp925+yCc3E6cL2vPboQU9xyz6ZHhVpOO+o5dTwobOAWo9ViqpW7M5VzEtrfiQAPGRxpLBym8Enh9T3Kq8UorVY/Q8cdhhTYBXDqUDBhpoeRHsnwnipBReTxR7hJyWawPATwexCAIQDmogCEAQgFq+j799W/AH5hNnYv9sun5Mra39cev4MbfX/VN+EnyMh2t/wBl9ETbN/oXVmno1mT7DMv8rMPlM+E5Q/i2i7KMZfyWJa9ydpMalSnUdmLKCuZidVvcC/gb/wBM2tkXUnUlTnJvHTF8vnkZO07eKgpxWGGv1MfenCvh8QK6EgObhhycCxHrx8bmQ7TpToXHbQyx48n8++ZLYVIVqPZS4cPA2NLfBOyuyHtrWyj7JPW/IeHHzluO2odljJd7lwK8tlS7TBPu8+JVcVinquzubsfh0AHICYNWrOrNzm8zYp0404qMVkWjcrAEZq7CwK5V8Re7H3gD0M3NjWzWNZ8cl+TI2pXTwpLhm/wa7eHabtXfI7BVsoyswBI4mwPW49JS2hdzlXluSaSyyb+vmW7K2jGit6KxeehiYXaVVHRjUqEK4JBdzcA6ixPSVad3VhNScm8GuLLFS2pyg4qKzXJFu3jwfb0AyalbOtvaBGtvTX0nQ7Sof5FDehm1mvFGHYVuxrYTyxyfgzT7B2/2Q7OrcpbukalfDxHy+WZYbT7FblXOPB8v16dNNC8sO0e/T14+P7PDbe2DiDlW4pA6Dmx6n+wkN/fyuHuxyivPxf4JbOzVBYvOXoY2y8Ea9RUHC92PRef6esrWtu7iqoLTj0J7muqNNyf06ll3rxAWkKfN2GnguvztN7bNVRoqnxb8ln7GPsum5VXPl6srODxBpVKdQalKquB1KsDb4Tmoy3WnyN6S3k0WPF4Nqlc4rB1aeV3L3apSRqLMDnDq56k6i/GWpRbn2lJr26laMkoblRP3Nk+ORsVstjXSpkWoHqXUDMMwJPQE8L8RaSuonUptyx1xZGoNU5rDDTI1OzgKmFxtNWTOa9NwGdFzKpa5BYgG0gh3qc4rXFE08qkZPTBkPjmTBYZadUq/1irmCOVa2lrhTe3nDm1Riovi+IUE6sm1wROBx7PhsctSqzEpRyh6jEn9rc5Qx6cbT5Co3TmpPlx8T7KCVSDiufoe2Nwf1lMK9OpSsmDp0nzVEQ0yma5YMb215XnqcO0jFxaySTz0wPMJ9m5KSera8cTaDEUfryEVF7L6hlz3Fv3ZHv8ADjJ96Hbp45YEW7LsdM8TA2PgvqtVa9WpT7OmGKlalNjVOUgBFBvz5gSClDsp78msF469CWrPtI7kU8X4aGpwFEVqqK5Ch6gzEkAAXu2p4aXkEFvzSfEmm92LaNvit5qvbM6FezFXujs6X2FNgMxW+oHXnJ5XU9/FaY8loQxto7mD1+pmV1pN9coJUQdrUStSJZQrc2QtwU8gDJJbr34J64Nex4jvLdm1pk/c0+LwAoopdx2xf7Csj5VtxZlJAJPKVp01CObz5eBYjUcpZLLmb5mUbSSrnTs3YkMHQi3Yka693XTWWsUrpTxyfsVli7dxwzXua7DgV8LSpKyirSqMQrMq51fXulrC4PKQx/5KKgtV54ksu5VcnozIDLQpUaJZTUbGrUfKwYUwLKAWGl+c9LCEYwbz3k34HnOcnNLLDDqeVWqpx2bMMv11TmuLW7Qa34WtPEpLt8fH8ntJ9hh4fgycO758S1GqmY4l7027PLUTMSGBc2P6c5JFy3pODzxeXNfU8SUcIqayw15MxdtrTDpkCBjSHaBCCgfW4W2nTQSK4Ud5YYaZ4aYklDewePPLHXA14kBMIQBCAc1EAQgCEAtX0ffvq34A/MJs7F/tl0/JlbW/rj1/Bjb6/wCqb8JPlIdrf9l9ETbN/oXVmkEzC+euHrMjK6mzK1wehnqE5QkpReaPMoqUXGWjL9sza1HG0+zqBc5HeQ8/FevzE6m3u6N5Dcms+K9vmKOer21W1nvw04P3+YMw8TuahP7OqVHRlDW8jcfGVqmxIN4wlh5+xYhtaSXfjj5e564HdGkhBqMaluVsq+ouSffPdHY1KDxm97yXz6nirtSpJYQWHmyNv7wLTU0qBBe1iVtlQcNLc/l8J8vtpQpx7Oi8/Jfv0PtnYynLtKunm/16lPE5s3RCAWPdzbopgUqp7l+633fA+Hjy8uGzs3aKpLsqunB8vDp6dDKvrF1H2lPXiuf7NtjtgUa/fU5S2t1sVbxt+lpoXGzKFd78Xg3y0fzwKVG/q0e5LNLnqjDpbpi/eqkjwQA+8k/KVY7DWPenl4LD8ssS2s8O7Dz/AEjZM1DBJppflxdz/noJebt7Cnl+38+yKiVe8n8wXz7lSx+Nas5dvIDko5Cczc3E69Rzl/pG/QoRow3I/wCzwEgJhWgCEAQgCEAQgCEAQgEiAIQBCAIQBCAIQBQBCAIQBCAIQCRAEIAhAOaiAIQBCAWr6Pv31b8AfmE2di/2y6fkytrf1x6/gxt9f9U34SfKQ7W/7L6Im2b/AELqzSCZhfEIBIgGzwm1sUBanVqED+u3vBlyleXSWEJN+fuVqlrbt4zivT2Bi9pV37tSo5/hPdB81FrzxWuq8+7Uk+mnkeqVvRhnCK66mKJWJxCAIQBCAZOExlSmbU3ZSeQJ1/p5yWlXq0v65NfORHUo06n84pmdW2liwO+1RR1KZfjlEsSvrvDOb+yX4II2dtjlFev5NeWLG5JJPMkkn1lNtyeLeLLSSSwRInw+kiAIQBCAIQBCAIQBCAIQBCASIAhAEIAhAEIAhAEIAhAEIAhAJEAQgCEA5qIAhAEIBY9xa4XE5T7dFgPMEN8gZq7Hmo3GD4r9mdtOG9Rx5P8ARkb+YUrWSp7L07eqk/2I9xkm2aTVVT4NeaPGyqidNw4p+pWhMY1BKL2A1JOgHEz6k3khjgXbYm66IofEAM9r5T9lPP7x+HznRWey4Qjv183y4L39DCutoyk92lkufF+3qZlbebC0+6pLW+4vd9DoD6SxPalrT7qePRfEQx2fcTzaw6v4x0Ns4XE/syQb+zUW1/K+h989QvbW57j+zR8laXFDvr7o0+8G7Ypg1aN8o1ZOOUdVPTwmbf7LVNOpS04rl0L1ntDfahU14MrYmIawhALPuhuq2NPaOSlBWsSPtORxVeni3pxva3bWzq5vQrV7hU8lqXurjcBswBBkptYd1VLVD0LWu3qxmg50LdYaepRUatbPX0Mejv7g2NiaijqyG3/KSfhPCvqT1PTs6iPtq7sYXGp2tAorsLrUp2yMf4lGh8+PyipbU6y3oa8z7TuKlJ4S+xzbG4N6FR6VRcrqbEfIg8wRreZM4OD3ZamlGSksUeInk9CEAQgCEAQgCEAQgCEAQgEiAIQBCAIQBCAIQBCAIQBCAIQCRAEIAhAOaiAIQBCAe2GrtTZXU2ZWBHmJ7pzcJKUdUeZwU4uL0Z0dTR2jh/Pj96m4/wA9QZ1a7K/ofMUzm/8Aks63zNFI2psWthic6kpycAlSPE+z5Gc5c2VWg+8sufD9G7QuqdZd158uJtNx8EKlVqh1FJRb+Zr2PoAfeJc2PQU6rm//AB9WVtqVnCmoLj6I998tqMz/AFdCcq2zW9pjqB4gXGnU+Ek2tdSlPsY6LXxfI8bNtlGHay1engiu1aDpYOrKSNMyst/K4mPOnOH8k11WBpxnGX8Wn5iTDuylgjFRxIViB5m1hCpzlHeUW1zwyDnFPBtY9S5bobUNVWpObsgBBPErw162PzE6LZN26sXTnm16fow9pWypyVSOj9f2VzbmCFGu6D7Nwy+R1t6G49Ji31BUa8orTVdGatpW7WipPXj9DHwdA1alOkv2qlRUHgWIF7eF7yrFb0lFcSxJ7qbfA63vHj12bg1WiAGAWlSB5Gx7x62ALeJ85tVpqhSwj0RlUYOtU73VnJalQsSzElmNySbknqTzmK228WayWGSPhPgN7ujtxsJWXX9i7AVF5a6Z/Aj4i46SxbVnSn4PUgr0lUj48C1fSXs0GnTxAHeRgjeKtw9zfmMuX9PGKmirZVM3A56JlmiIQBCAIQBCAIQBCAIQBCASIAhAEIAhAEIAhAEIAhAEIAhAJEAQgCEA5qIAhAEIAhAMzZu0KmHfPTax5jiGHQjnJ6FxUoS3oP8AZFWoQrR3ZouOB3ypMLVVZG5kDMvw1+E3qO2aUlhUWD+69zGq7LqJ9x4+TN1s3HUawY0WBsRmspXje17geM0LevRrYuk8eZSrUatPBVEVPC1kpbRqGtYDtXsTwUnVSemml/GYVOcKe0JOrzefLHTyNicZVLKKp8l+/My9461sOUq1UqVjXzJlA7q3528Li/jzk+0J4W7hUkpSbyw4IhsoY196EXGOGfizP2Zi1NPDtTrIlGnStUQ5b3y8ydRrc+PjLVvWi6dOUJpRSzXzx+/iV69KW/OM4tybyZqt1yGxlVkFky1CP5S628uWkz9mNSvJShpn9sVgXb/GNrFS1y++AN9CO3Xr2C/meeNs4f5C/wDlerPWyv6X1foi7bp7X2eKWGprkSsVRcpQ5zU0BObLrdud+c+29WjuxitfyfK9OrvNvT8GJ9KqnJhT7PauD5lQR8A08bQTwie7HWRzwTLNAQgHzDQ+U+PQI61vpps+qG45aQ9e0Sbd3lQePh6oybb+5YeJyoTFNYQgCEAQgCEAQgCEAQgCEAkQBCAIQBCAIQBCAIQBCAIQBCAIQCRAEIBzUQBCAIQBCAIQBCAb3dHaIo1rMbJUAUnob90/Ej1mlsu5VGthLSWX14FDaFB1aWK1Xxm53u2G1Q9vSF2y2dRxIHBgOZtpbwE0NqWMpvtqaz4r8lPZ14oLspvLg/wU4Cc6bZ6U6ZYhVBLHgALk+Qn2MXJ4JYs+OSisW8i97vbM+q02eoQHYXbXRVHK/vJ/8Tqdn2v+LSc6mr18EvmZz17c/wCRUUYaLTxZUdqYzt6r1ORbTwUaD4a+s526r9vWlU56dDct6PZU1D5ieFGoUZWU2ZXDA9CCCD7xIE2niiZrFYM7BiKdPa2CGU2zgEHj2dReR8jcHqD4zaajc0sv9MyE5UKvzNHKtoYCrh3NOshVx14MOqn2h4iY84Sg8JI1YTjNYxPCeD0W3cjdp61RK9RSKKMGW+naMNVsPu31J4Hh1tdtLZzkpy09Spc11FOK19DY/STtYHJhVNyGD1PDTuL8c3/DJb+rjhTX1I7OnrN/QowmaXxCAIQBCAIQBCAIQBCAIQCRAEIAhAEIAhAEIAhAEIAhAEIBIgCEAQgHNRAEIAhAEIAhAEIBIgFp2HvUaYFOuCyjQONWA6Ee158fObVntZwShVzXPiZV1s1Te9SyfLgbxq2Ar95jQYkcWyq3rexmk52NfvNxfXBP3KCjeUclvL09iBtDBYYHIaQPSmAxP/D/AHj/ACbK3WMWvpm/I+9hd133k/rl6lc23t98R3VBSl05t/Nb5fOYt7tGVx3Y5R8319jVtLGNDvPOXp0NQJml4QgG43c3gq4Jyyd5G+3TJ0bxB9k+PvvJqNeVJ4rTkRVaMaiwZ0OhvPs/GJlqlB1SuqgA+DN3T6GaauaFVYS8/mBnuhWpvGPkNU2TSOcfVARqDmpMfQXPwjC1jn3fIY3Ess/M1e3t/UAKYUFmOnaMCFX+VTqx8wB5yKtfLDCn9yWlZvWf2KDUqFiWYksSSSTckniSZmNtvFl9LDJECfD6IQBCAIQBCAIQBCAIQBCASIAhAEIAhAEIAhAEIAhAEIAhAJEAQgCEA5qIAhAEIAhAEIAhAEIBIgCEAQgCEAQgCEAQgCEAQgCEAQgEiAIQBCAIQBCAIQBCAIQBCASIAhAEIAhAEIAhAEIAhAEIAhAEIBIgCEA5qIAhAEIAhAEIAhAEIBIgCEAQgCEAQgCEAQgCEAQgCEAQgEiAIQBCAIQBCAIQBCAIQBCASIAhAEIAhAEIAhAEIAhAEIAhAJEAQgCEA//Z;" parent="1" vertex="1">
          <mxGeometry x="497.5" y="764" width="120" height="60" as="geometry" />
        </mxCell>
        <mxCell id="XOACGdIlgl1HNSo2p2i9-32" value="" style="shape=image;verticalLabelPosition=bottom;labelBackgroundColor=default;verticalAlign=top;aspect=fixed;imageAspect=0;image=data:image/png,iVBORw0KGgoAAAANSUhEUgAAASkAAACqCAMAAADGFElyAAAChVBMVEX////5aSf8/Pwlib/5+fnv7+/e3t7z8/PHx8fT09Pn5+fi4uIAfbns7Oyzs7MAf7oJg7zPz8//0QC30OS6urrv9PmwzOL4WgByqtC+1Oba5/Dk7fTF2enQ4Oz5ZiA4kMJYncmMuNecwNwAd7b6MzX5Yxdyd3f4Xgh7f39tcnIAsfb9QD2doKD4VQCTlpZ8rtFGlMRbXV+pq6uChoZNnND/2QD96eP94dn5fEz/ADz5g1n6pIn7tJ7+9PEAfd6hxN35AC0AojT2jGv/6gD/cwD4cjv/TwD/rwD/ogD/Lyn6nHz7yLnwAFj7u6cAqfcAo/oAufAAmfwAhv5xp+8AxtMAxOgAU6H/kYr/WUv/RTP+4+L+f3n+TEP7TU5zzHr5EyH7AA/7j5rW79kAtgCsmGDm5sb62Vn+1TeA0YsAtycAxEPosrV1veX61mv++eY0ukyKsGTxbWv+7bPUUED/5pMAoxpXrEdpuXhQvV8AW59lkL+828EAlRyjsc+n16oVmDi8vyGGsjz4vAD0wkt8t4jX4r/AfHzRn2TGn3yuwKzFmpuH9W7OtrDneXjQx7TXvnGe23j471v55zf5zpb5rnT60a/Tmon/iwD9xJXq0PPakdndd5jso2n/uDq7Tdy1AOe4Gf/bdLPxu1ylO/+5LuGwZ510MfSIUP//lDf/pzbPfmNiG81vRdj4TnVeQsaVH9pQLr7RW3uwO370aZn6AE30AGr1pr73jLCoyvl4tfSHd8S4iau6OEvOJCaNr+nMcIJxc5eEkqhJi90AfPsAwsqh5NcAx7cAypoA04oA3nUA5F+h8LWL3fAAtMIAzavE88sA42gARYsAyHEAeM0AQp0AGoJFaqFooxQzAAAXCklEQVR4nO2djZ8bxXnH51ar1a5eV9bb3en0cifrDUs6nWTfHfdqDt/5RfhFJzCBxNilJdS4kJYCTQFDatKkpNCWtLVpGgINCYSWkpe6Abfl7QgEKG0Cdvl7+jwzu9pdvdyLOZ8ke38f0K12dndmvnrmmWdmdteEmDJlypQpU6ZMmTJlypQpU6ZMmTJlypQpU+vQ4MjwSHijJw2AIoHNKsGAqqHVDgvDAZuU42Vp1CnLcmJ+g2fJKGdx1ZqtW/NOWVF8tcOCcNim5Hd5CnosKOcG6yxb2Gmb8iPPK1ezWOIt00eGR7F4PjhsM7K7TEHx5KLcroxtBWfIyNizGWVAm8JyyJ7WpYjLnhH44+uoTYWdFnmeDMgWD7eh86Bmw+E41G4z2l84EhnyWOSRSGSwZXoc0jYhmy+mCDAaJAGPxbkxpy5b5GHCezatCgH4xdq25K4jFQiHAyTsg72BAZ/660Z8A0oXN+gb0GhSUqRokUfBJMJhnkQisDfs8+EhAdwBn7y6Cef6lHMDPnZpSAgTTr02JeWjW/xAMKLmHcT0QABIDQfC7BT2yauXG/KhUQda2+KmSiHlRFLxRGJ4PuFknYyniM0xEINNJ/1B47g1qp7HSMUpqYQzMRR39hPSj4fA7pEE9qXxBFS96EyElYR+PG8Et+KwEUw45UFPQq1inRQ6I2eM1+U9n0Af5ozhKU56oiXskZ30l5E94C3DA4ktMLk6KU+Y9MuWOLQnEnFCySy0x47DX+jhoFSjdMvjM5CK0WYBnh36hFEyzA6eJ0MyTcQ06vNHIEFGfwgc6NYo7ciKMczVSGowgXlbilreg0HaM8pFpe/Dr7inSOo9sLwVjZORYuqnHVqCEoOOG6wM/f0QNRwOazKqdZGUVNhj8UQoKQuaDFAeHsXawE/eTzj8IE5LjB48DxhjFG0/cHMGaLUtzTbVD1kEaZnUvIcHinBkrBjXkaIBCqUtY4aW0c2J6zZCivoDmRmYHISiQG0jTvg94bgiCSfq3TSUrz9If2lKSvYFAoMerAjF4MSD2QdcALYshEvICQ5tl7bZCK12fDDAN5ACegGwX7C/IOY9hHnjCRgZa6TIIGTD4XHDYLBy/5Xn1EQqjn/BafHQlFhph0kgGByABgVpXDAY1EhhDEQdiodVJEJPtyBmSMQzPLAPLgAIobpBXxCNMIb5QDeH9qALTFRSHgxX5rE5KXn7Bup9X51UDC8JpPqxjPPyRmPBzSCF7gVLC6To7zpQj4oHPcaIS2kCxQA9nkZVOlJxaBtBtK4BtEzsL1gfZyQV012vmdSAdkAPkOI81PuiLBbDoIx5WeZXm0kNy84A+vdIUEZHVmTHMVKBQL9lVVJhOBXIoGdU8u4BUlgMD91HBqDgOn9APTrA8Ay1IgVGMQjVk33DMrgd7EwZZiBl8aBbW4UUHCBTMiP1vHuBFHbVHvbLjsp6q2JRAjO5ZlLgnoYArDwyyrqAEQ/z/UiKTkKsRooeMKzkTQvURaR4cNWBlqRocZkbH2V0mNQYHZtVMyno8qBL8smjcZk1u2EPtUgk5YO8guH2pGRMZ2E65O3EvNuRGrVQUlvZ9wWgCw+3JkWLy/wxoHKq9qfG6FjdZlLg32IWC3KxKLUAVNBQmUenau+ndHuVvNuRAnMqBrZqUKgf97UmpQTitOCaq6rbVEtScA4GqRjrq7XAkFIhFRweHly17xsaHh7S592OFJxkgV/DuVlzr6tqdVJ0OpaGUrDFExZb6kjJbVofC2Jp0AXVHxqAgW4ArUWNElbzU0BqxOMZ0eXdlhQmg0/bggCd0DgJAmaogVPzU1rkCY0ywKpnkWHggR23nlRQbuPR6RAwiI0Tu4u4x0l7SA8fpqhXi6ec9XjKKSd4JWhlA/EWpObl4sj8llgUITwYcBGGV0oNKCkLjuaK2JUXsfgDOL3djz/roOZmcCwSxy5dixLCOLoOUIOkDCPUsfGIDSoawFSOxqCUXxtSFjwvjphpAQaouwbulkikmVTQKQcbK3Tl1M8iSGSkkkKDAEcDlZxHo6FNCOckRzWPVR/FY20VUkQ3Fx7xsLCK2uAghmIxahdxdp7c1qPTvGULmLKWN0XkiTWTimE4PDKwRUYV8NApbAunkQrQWW06K4WzLwxHkc26qCNaFqPLFiylk1oWeA0nHeMPsopDHzbkYUFCP5s/CVBoeAjW3mNYPlBJsbxpGKXlzbFZFh8FryMVZ7PvzvjWsArHnU5nPxIYjcWG67s8tOfj+9VE6OeduiLFiqB+ZvuWooU51SGL0xljE5axWByuY1EuOALnFulUVCTmdFoQyUAsVtSVImApxgZY3gknXV/Q5x0uwvlwShG4+fDSg5An9H1FxbK3bMmmxU8SaLHFNx/WKL7duoV2LrfmZVrl3fosjM9lNjoytZpi1GmEu2JBoqsVVEZ8w/Ug2VRrYSjSPz8flze6BHfNifcoM6/O4bUPvrYVjns8Mnj0LQw/e1ZcOLJp9yaZMmXKlClTpkyZulo0Ozvb6SL0gm6/9Uu33Xbbl269vdMF6XJxX96/4yuoHftvNSTwtg6VqEs1u2P7DlXbj+nboD/bsUJ1o7gd23Xaf0yX5E91rFTdqDt27969ffvxEydOHIet3Sd+R0sySel15+/+3vHjx0/c6o3c9dVtqLvpbjFXkog/w5cKInzz26QSIS53zs+D93JDqgh/cgI70r2OxY6rQL9/8p5jx0+c+oOdO3cG76Wo7oMWmcn4/X6wqbLoH3MTkiql3EQac3sLWSvhxwolf9ad8ZfGAFW54M1lrwlUXzt58g9P/BGC2rlziJK6n5BSmab5szbm1ssZoDfmhV2FMpDygyWNOeBLgYiQQsr+jlZhi/TggydP/vEpSwxkGaXt7wFCsl6aRv2UNEZIxs3+EiKMcTxCEvCbP0NyZb/bXS50sAJbpgdvePDkQ6fow46e/nsVUmPUA+lIoRXRkMExZjOQKhSAlFvsYAW2TDfcAKjutCQSCWcieLfS+lKsORlICWMYhwIvo02VOln4LdWfIKqvh/8U9PD9qkf3IwzeSIpkoI3Zsn4jKQHNj9vY04c9qkceRVR3uE6f9j1GQW3DvaWxbDbH3LWUVVy2rZwtY0fIZ+ukyujas5kxe0ersFV6/PEbqFndccM31K4PxDtczYdaHS2Mh3PYu8SkODDuzZfWYu58VGH1kC7w7D2pFeM3VXVcVI8pqKg739Yl9rFR6SnZeNs6BBjYXzitZbpNB0vJ5RFA9fjjfwaYzjzRo6CIAgqraF2PAtaJmSm6ZZ+amQgEWh7EgPIaKWL75qOPPr7tzJkn7upkZb+QKCik5LKvR47JfDqZnoGt8IF0MhSaanmUy2Vlxqe3nzv//P67enl6mIGyO4T1SQr1gdIOxyDbCrU70WFvQtXjoqRcwtrW5EKjc9kpn+jiwkIfVTRQT2uQYL3aSAEoq11yOBzQtNQPhyKDlUzDV4eUVghF2d8kPWjaYRReRYIWeNWRcjkkaFff+pYgiN/+C0F48ptPspYm6Oo+kU4vTjimQ30NAp/1VDLdJwkSSml5pYJDkOwuNKpO12/zxKFJObyS8J0TJ74jfPure0Xhob/8Gqu3C0zD6nK5vFKgAoii6XSyERRYVRrMLJp8ip7hZbxKfkHwOuzWq4+UIEIln37aK/3VvX8tSU/+zWNYX9Fut425C2JOyDnONtlSo0IMFVxI8hfwUxTs2Pwas+tIJTdFQMoFpLxeMIf6h5cKPLU/l3PnrH4h08KYjFoUmVGBRD9eriWpZx7oTC03Q0jKIYjN8rNODQQ9nm1mDVTJs8AHz9IuIDhcjaSeufHG+zpUzy8uSkryN8sYOIyv0fxCjuYLNJG6/8Ybb/xuz7Y/RkpsHpEYQIUXomvY1HTDuMamt6m/ZXndvQtQPdPByn4hKaRaBJoYTQo0qLKHDxpMKpkOgdIGeKGnwg5BCaZoi9WR+rtz5O8B1n3bdqEeYA3Qhm7NwUmG0kip7l1915Fi7Q2rCtuFggieHlfZpvN9k3ovlUxOV8Y5brxyIGTYPdmXPwuHC3YhV3K7dKQqe849u+dZ8g/f+8fvU1T3U7cupEq5nCiM6RfyuKzQvet6CikwIKgaRSWiVRTspQKQ4vwlO+DQWU80NFM/lweIupS+6KQgAClHqeTXkeJCe86d2/fcD54H/eiH27btuvu7aFVCi3V2e2brKr5h1W3KAV27gJ+ihKQc0OMBKbf/rKHXiy4apgMmkg1N0IY25XaLOlIH83v27Dm375UfvPD88//09nPbgBUaFSMFbKwFcYyzllNluzVVzoiklMqWiCvlgrSuumVIsykYqdExMP3jKBSgMUJbCCxGDaAauq5ZI8cF1vpy+ta3sLRn3969+/bt/f4Lz7/ww117z5zZhfPDQgYiCas9RWypnIukBCJlYB9PcgVCCiVcash4O0KknTRSdsOEAO380Gss6lmkqUXNziwmk5MzFNqE3teHppBUg0e/bWnp3F7g88T3XnzxxR/tOvPKc3RxRsj43W4XkspaiVSGjiPrcmTAVdkJcWQ5UijkOgqmSTpSLWZaYLgbnk5roCpQocGzeWxz0WT6KZxdmNZIJg8OCmoYppHav39pKbT3xy+99PLLL774wnNnfvLKtjOk3vqQFEfEsrvkdluBlBXv1bBlbUTMCh1G0yCFlDKAaSXpQL39LeIYWBsDwlgP0usgk2d1V5HqpK5HVP/8L6+++iqgeuGVvZN7zzxHDKR4MDBaGPyDgCRsk2Kqu4JURmpVj1C3muRB+KaP1tNYlwOG5LrqpP71OKCa/Nlrr7326ss//em+c4tn9r5C6qSylBQp5wRBpPv8GUFIibhSmuuu5rcOUlOqTYXG4Zs+Wk9ixFBRjSo5rT+rTur13bsB1Y8pqpd+Dr3gvp88S/CmMjzK6iZ8CUMJfyEnsn3eXE4iDtiylaxXqtaXo3WQqqNJ4zfNa2FXCDtmVSOLTurPqpO6/fz1wGrpFz8D/QJjq3N9E1ewQldMa5Ean9HiTuRiHCpTdiEN3IwWbWkx+r+dv/56MKv9x44tLS3l03u+8uUrXakrojVIcUu6IKGZVAhJaHui6Wj9TI0UfxOgQruiWtpxvjfXstayKT0XxMAZp1+IrvUZG6BuhHz7TZTV9Xjj8O7z509d6TpdGa1FalLnwEOzDTuSB4gx9sQgXZF+1uX2fwdWFNb5m27q1edB1iKl7+rSFdhR0YHJY2eonw7VdX+GOU/u9ZsUvd69kwVraC1S0/l8nUR0Cvcs1Hs/Nq2gI5kPaSFVw+wwd+qXr7/+y1PdFUxuSGtHCbMHNTS0e18IUTuL5qkBVbTUiv60VvPoPa11xFNEM6pF+r2yGEqHQpMUG18HZQynrk1S2iA4qXjs2YkJpavXHLxxMHNtkprQzSYsGFK4Kc2d07GOpkY/xT57mFxrUsxgxpVRx7S+d1vUDUUm+vQpM4ZLGPs+zvZGDfSGtXdXkVuRmp3O01pP5ScPQqc+Ywg2o6GFCq3tbGXKGIW29+icrTZXq124cKG2XAv3KqpmUuMLEBdgU4KQMprMV/h8n1HRdL5vajKaTzeuAYb0F9aR4oaqtQvVC4cPwUdt7o0eRdVMioaW0cUp5qshMDiY7mtStMVKaTub4geWaxcOHTp03XXXHTpUq628cbWM+2bzehZoJ5PRaLoFLb3SyWjS6Oy1VSz7HJgTcqKo/uM/q0Mt4nSb1FULMS3Uwk8tGhCMI7vJSmW1GxOiycrBxZCxVdVJza7UqhTUEfz/5/9VrVWpUXHusvbUnpDN6VaTpW58qKiZ1IzRfEITs5XGgXBTU8QAoaFNqaS4yFy1dhgYoR7e8eahw4erQTSqQg4yVo8uGJ5K6wFSC1MzrKdLhpJR5c6DZCidx8hgvP2NQa0cj0rK9lYNbIqRenv/dsuhKkQLNlxZZ4/NuLwCIdaMaIcGiKsxduJw8V01LazIQGo2FE1SHvlpsBJuYlK9/5W6oMk297tED7S6sEoKGt/yYUqq/9j2N9+57tDh5WoVIZVz2FyFsr+cI6VMIcdn3IUy7C5lBbEbnxA1kDqomE1ajS7VUAqDBq5982t1YZWUa6V2GGzqyJFPbt3+5ttHgFS1NueAA2yFbIm5tqyVZNjiXkbCJ49J95NSVtZDWhiuhOdpMJsK7RNhaKzeixCFdkmNbmm8xYVVUo7qyjJtfbOup99Ep16tVucEisiFNiQWyhk7IiISbHmpx+p6UuNLUa2tKcmUVGgBPBE3E4KIdIKbmGFAk5MzE4gv2TA0VlQnBV1fFZpf2O527wRSh6pgU4wU4bM2d8FKUpSUF4AVvPhf95Mi43TAm9YvMqFRqSi46SWWhKTUGZi8cbhXV50UOPDl6uEBu/tdGlBVlyH4xLbG03XRspfYspRUyU3wpo3eIMUmg/P6rqySVGaF2dHaUepEcLuxiUrKfnpleXn5gr1UpKAOV5eXa2858N6DQi4rEj/48ZRAUhKRshBgiaTcC60PhPcgGEJInNJMVxpOOphPp/ONOxukkuKlubeqVfu7KzCeAU7V5eqFORGjAJtAw3JB4uw8ccCm3WuzWokdtmzd+NRxAylsbIaJJlxPiE61ctlrqB6jC6dXqt7PITRALS9jOCX14iDZSIrG54aJJhpEKVPmG1KdlM278sbF2nvLVO/V5mpzYotHtbtfxiiBRZpR7SdXhnvRhTant5c2l2AXV2oQfqI9vQcbK2KX3Ri1ThlIKYt7ySk1VR3BhDZ+z4VufsohPjxXW7mwUkNOtR4FZSSljoKTk8wxVejIL9omCl9d+jlPl+h/eAVggdyiY7OKvsUy+qmpaJRG4NHQ5MzMdB8bLC+m28VMq8k4jy6Ifv/p026/2MU3nK8hI6lKfqHCboGFoTJreSFw5hOXMUvZuDZjw2cCbL3Y6Slqnp/iDHMGrScK1qFrYb1vQj+VlzRJKWKkDM/5sLmXdEi5/eAyL+y9GknZBQMpejNLqDIxOxXFFavLXEnxtny6tofFnkM2kJqYTqZpo5sNhRbXGN21VzOpXl5qJ/Vn261Wq0uVNWCtTNrhu61SCWi7NyK4nBd6Ot2z7ZFPbr75Vx988H7PBgnK+xIESYSAx61Jv71h+f2iKAn69yWEb0Ehq1+/36u2xd7BAagkb4vHti9P+Ig8+HPtHRxDR44oqD749Ycf9qhZsfe64BtwpE0UvgFHe6/LoAKKkfroIyVr+pYqumV1d6r6G5DyUiV83cZ63xe0pvBhZHyvkkKKP3LLkZ2xnXVSH/83yzqbSqXYk0WO7n36WJP2/qn1vYBqXXIxTopJfXIkQSXfcvOv/vfDzz76+OP64pUiey+80Xqj7zRbl4zvNLvl4sWVlZXDzosX/+cDRuo3NGtlEVnKlaQUPk+U8+I8g1godem9HFf8jYKDFNTK4Z2Dg/2U1G+V5pcSBclBxJQklTOET7ntuZRESjmX2AsWdiXkm7s4N7eyksBt6tDrpHK5nJ8+bQw2RZdjUgKPHqssrXK5q1gjc6CVi+/g9vtoUr/Vtz4eP8FP4WofKQuOTDmTuVZJBZHU3Kef4/aHn3320T0ff8wSmJ9KCfT5UTezKVcv9IJXShEEdfHTS9DTPXIP6OQ9d7KErAAdLikVOL6QItasaHMDtXIJbwy6RsVIHUWj+s0dX7/jMXUwUwalCJfLZiQIq4RCWSoLhC9ks+VOlraTegtJHT169OG1DuSyXRofbJV46qcA1dHT+I+nDr3TkkdB9Ja762H2Dsj33twcgjp66dKlo5f+73TLg7xud3e9naQjGnkPHRXTpXc7XZqu1tCcgurSp75Ol6XLxY2szEHb+/x0j05ObZ0wMgiY/xi2KVOmTJkyZcqUKVOmTJky1X36f3SQ2ZkmMa7qAAAAAElFTkSuQmCC;" parent="1" vertex="1">
          <mxGeometry x="633.22" y="759" width="113.56" height="65" as="geometry" />
        </mxCell>
        <mxCell id="XOACGdIlgl1HNSo2p2i9-33" value="" style="shape=image;verticalLabelPosition=bottom;labelBackgroundColor=default;verticalAlign=top;aspect=fixed;imageAspect=0;image=data:image/png,iVBORw0KGgoAAAANSUhEUgAAAVgAAACSCAMAAAA3tiIUAAAB71BMVEX///9oaGgAre8ArfDu6+QAAADxz4IAq+8Ap+5av/Px+v4Aqe/x0IP7/v9kZGTm9v329vZGvvIqtvKEzPWy4PlgYGDD6Pv09PRra2t+fn5cXFzf39+fn5+Li4vMzMyzs7Pn5+eqqqqRkZHBwcEgICD49e2CgoKRgX3Y2Ni6urqWlpbvw3V8e3a3ta/CwLq80d9ISEjc8vyS1vcyMTB1yPTd2tRUUlA8PDnvxnni39goKCbIyMjtt2vssmD//PR0hpvZsZHm2sbO6vuh1/cSERCzlHF7VymggV2TcESifEuTbDeQdWBeRir1xH9JKwDjuXFVNBmtdzOqeUKSYiQlAADTqGbatYE6Lyp1Y1H106Dvyonv0art2L8kFQgACg6KVCUzJRjWmVtvRBnrp2zwu4pORCvfw7F7akP549PxxqVhVDa9omZXOR2pkFswHRDooE7Ah0ytZy2JSgHvt4Lll1jnlEakhHfFqKSmgYetzu6BZWTJvahSUl670+C0pZGkbWd5ns8+QFmCdYVicqeOo7xcXWtndpG5tseUiqi7pKbkzMZihbXj2rdYi69RbIhzqcuakmpoWphwT1ChurHx3q7VvZX4/+m/iIJCQpF8XXKktNTEj2W1bVTVqI21noM/X6aUaW1tZpOGUVxzhsBQWoP5BRJ4AAAQhElEQVR4nO2diV8bxxXHV9pdCYQuY4RuaXUsltCBZNABCGFAblK7jXumTiBNHagjetmtXSc+4joNGMexk5bUaZvDPf/QzuwxO5KAeEez2G3nFweMdj+M9eXtm997M7twHBMTExMTExMTExMTExMTExMTExMTExMTExMTE9P/kvxB68cIStIxjPIiScqk0jHJ2jEy4ZAtErCFwrH/G7hSaioUCoRzVo4RDcyKmrL1tN/KoV4YZWI2r81msxRsdEHEZbP0h/iCKGVT5I1HrRtDEvsUeXHIenyTp0+Mumh/22DMpoG1MPX5K/1gxfjzzQYeIFcVELWPjYyMOJ0naINFXG3eJOVvjSk6wFUULRzuCAGcLp9vdfL0KCQ6NuZ02u123k4drD8V0sGGE3S/Na7IAWDjx+sNPC5ftVpdnTg9Og6JOp08D4jy8A8QdbAZxNVmpds6gKu4YOEPslee6urq5MTpuXFeCVEnBAqI2pVYVT7ytMFKce9xBGzwILBixroBFYEQnZycgH8ZdY4pMaoAtWt/FLbKRyjKYPNYwFp4ZeYwnBVvQ/tb3rLxXOCSn1g7PQdnJvClb1wHql34WqDaVabwNcoRK02jgE1b6LW4BLjwK1mFZrFcKxWtm73ARD+xtnZy7gQ/pqRRfoxTwNqxSNWQqkGrvUAZbC6sc7XSw4JMLjZK5TSsvEI1WRBqAQVsiuoYrtWJtZMn50bH7U7nmJPX+NkRWD1m9UjVkVoSsRndaVnLlUuJ07IsxAHMslCrCUJZBUvPyXrm5kZPjPNOpzI16dc6JIaB5fFg1T9pL1EGmwwoWMNpieZ3HVS6U0uka+WKWKnN2+o1oaa0DWL0wLpGlOveAKdHJgJrvIx9MqKYLlh/CqbYQDhjtaMMZ4WiOD0fEgPz08DAyrU6dbB2O0ZTi0444+NgNdeqfaG/oEQtXbDBVMAbCacky4vLcHa+IRZXzn7jpRUb8AUa2GnaYHn9P94ISRWsk9ePa4kV8wX2oXOsP5dPptPJZD6nRag/k07pf5cS+WQymYlaAjncAWng5abD4Wh+UxQbci1LH6wGzLjEVZaYK9DR6yfhZw8BNjdtFAPeeE814F9Ex7zxaQsKhbgYLp2DXB0O94Vz5+WSaEXE6uUUb8z7+OSlGwBUGOhU+WEqLyke8SKugF8gnpK0Q9Fp/JjXG4knaYdtTPzWtx263I7WtywAi1HikSfQwWqlgB1xRWlAMwiEYP35OEZVQ2ubzkSlHDji7Tvm9aYpR23+lYJbQarpwneoT168HZua9KhFrsCJGwLcdCEnQQTWn7L1c1XZRiKRwIFHQkmqRiH3XUfTYajg+J4FrkBnydtxYgN2q7dO0B0tUcRircFnViglUXvXIBF9v9lqagHbLBQczXOU+4YgYlGtZThVI2KRB9BThVHRakaMAKw/aZ4rIBujWIzlfvDDZqvQbDqazWbB4W6++iOlHUNvBN1uGZlTn8Dwkha1tQxHpmUQohybCx90tX+dvDTbiHHx4msgUgFaELfN19dXQpRrWphje0oE3RfwPb0C1Iix95wOzzUPVooRBexUnmKWFcWisA6zrNvteH19QxBUv9WgFrIwFRiQeIQW5dieBNvbN+DJwPrzRFzTCYqWa1HsxGVh/XUYsa8BrIKQUPcYhGgNohQIuJtC3SsMLI9KL73JbUSs+VQgDRitZ5CX7haDithJyYKwsr6+rmAVhPkpbd2L0giK3bL3q7e7NXAQrSDYSSqvzNdjPCBgqTb3Y6KYLQu9KmmrCJQSudGEQd0VbW5ycmrEal9jMY0XweYjVkqTzFxUW9D+higu9HEVatq67QKdMZTJS5+VeATXcAVGKsAXZ4xANg02Gv56jAOalui8XVXQAVTkfrIxLWQbVMbQKi+73q3SpyRUeaGuDLIERqFA0oTxq61sk6K6GJWCnaypAbBlfYsclTSr9Ar6HBffm2Pt6MLnUQIwPK9ZsEGSqStEs5yVlNZrrZ8rmr5EkYbnUuyW3s3m9UyLpQLD3xodRDwfmLVbEkEm8MYovFMkpRQIDASsIJeyYkPZgThLwXPBpZmDpS5/H3YUileWykyCTUQIwNJsbcU62Y7YmR/gCqYvrzgbUvJBYPhhXCdGDxM8OnfoUaQ5U2CJUmyAYibIRRbqWXF6MGCBpjtipQgT8CyFLTGuQ3X0USSPqeH8JGaLQgDpCobFUEOcPShgQfUFsm9R2btRl+gNeTzyk8xdFMEmxUpoQUwdyFUQ0h1RLCkbZ6foDXk8CpL0CeiBjdbFYl1sHBywasjWlRKssUhtzONRkGDuogc2mBbrxVkxdghXUCSADFtTnMHUkM7ANXfyYM1VwVHP6iFHcZmavJ4v2FxWLIbEbOJQsPMgZKfjIoX5y3eY3RqZBEc9E4e6MeNEn5nxnivYYEhsFCti8bBMALxssSPWE0qVMKR39o3o3QE78vzKC2Mq2DHe6G/jyzRGA/E4wFKyWzlRDIFJv3QoV0EoLYizggJ2arhBfSNGXYVYwa91sHj71Whx86g5YxYsSQuGUoHgDytgO/0Nwx41xKysbkceblDfiLGQhRorENyIDhYPVB4PVa1lYw4skd2iVNLCO7sA2PpgmwDLBQFxQc5S2N7tQ3u37CgLqK0CI2KxjUd27GegJRCTYIm6sXQWTGDujKePSrEA7LRYkTsUtnf70BYjY1uB8uUIlmN7UoDRgiFJBVyepGtIp20YhmBjR5gtqPlYSaAFVl+aRXti7D05FqeJ7SnQXzIJlqQJQ6fR7Yf9lWKpcljZpXJNlGrz5UCHTsTiIakjw3Msvg9OdwlovdYkWImEq81GIcv6lSZAOX2UKRDS8JxSLb5AAay+JoM1WrFUgFwBj/5HazS8+ckLFD8kSdYWGr7EBGDf6Pw4VjsqxdbUG5PqpXh2aLBoZsLj1YjYvrkLm7eIfCzh0gyNbQX+X7z5/TdfqR9ltjbO/kRbUYyHaOVYZKG0q7y3QDCsq7GWoL1iEiyXI2nDQLKLQ5YJwqWlVuvSW/XDc+zG5lUNrFg/36Fgt4ydWGjLAJZjjVXE3nlM+5tZsET7NSDZcEoa6q1uFRxud/PSWwtThxnZraULP9XAfuPq9y4PNZoBFs1Pfa5AN7g9h9EEZh4sYS6AW2TjeYn8nW63lJ3GzavfEQMHp4ONzYL7bQVr5+0Lhda1LvlgWirgcSerocN8LLaM2zvHqfbBJFjSXADR2oi3zMvbLW1bfOHcG2LjwKWZy62mWwnZn/0c7pUrbMmEg0FpORbzsHyf3cKWv3Xs2DRHADYYI8sFNvL7weXta4WmW7/f4BeimB3cViAI20twz/wvf/nzC+rPoDVMyCrdLaOUMrbF4AUC8gU8OgF5Bd40WC5BGrLeKYnoTYJrHNsX3wQhCyqFQbLbSzp79dPSsGD1ugu/3rEcO1h2Ge4BfDAPFrvD25wCeaJMsNEqYLcbAGAgZMXsYJ2gg9XPa62TjKbJN4Kmpp4Ui8CiIO25pQbzCubBcgmS3iEMWLItKuq0ZQBrnoMVa2QgZPvOczQ3h0iyvhGnsfsVL20NH4sg9p2hxS0BWMIsS5ph+4G5l+C9R7P9pmt+q+XoPa+11SYbEchnh7dywU0tGDGeH8yxyA7o5kH/igAsYciSdmL6wTrcl34Fiqv+XNDdGjivtUE2IpSrOnFydHR0fBzgdUK8GrCRnohFk1VPb5EYLEewW558T/cgWMfVX82G+nsGK9cKfec53FeGcVxQAO/publR5WEQ6n32I3jbEJkwI1iRfSACK8XNB2yKtKTd7rvElTJhcO66PHAaSBrbhGP2Cj6nDD5r44QdrdKOGZc99sHwBoQRyyWmzHIlf0TMIFhQJmz1c62d6Q9semBVKU+HOX1S2Vegdrfs+vqWvuplrB+QgsUfr/UsGuYmr4FUoKTPMzXcFsyXTl01MoHuZJtXhiprD5Sy2c0zAR8O5dSXx/GttGgyIwQbNGlmyW9ta28N5E6g5qViqiYobGWhliouvHKpD727WdgaYvI6Wr6JibWTo+NjQE7MzOL9LUKwJrtcQ6zNdK+p1Wwf3dZbWW88ViqXS7G4d0EU3+orD5qt1zaGnbqOlMelPC5u7eQJu8pXL9XsxD5WlfTsN3564xL5G9DB9lzlDkfh17D+alQq6i7uzptLPWcVXutaihUJ8IWA1+bGIV+nU0+8pKmAg/fPPCNZ0pJLlby11HRD9UXsr0Vcb7zZk4m/vX48WHV5PC6f+kjOcefIGHwC0hBg+8l6vQH4vAL4xILe1wl7L7rk7etXlpZasM+NobvyGxixs5VIvaFs0OiJ2AJNN2BGyjNPtYfIkoPlpCmj6e0NTE1nElGgXCY2FTHQBsLSsP9cvyx3u+vXriyhTOAuXK9JwWDQDwU+B6XLV4yM8dy44hrq6VDBmBa03ki8p7CKxiPoAL2bkzc2W2pWcDd/289O3lxya5McVff6nOTPqJXC4DNfomnlQJzuw2C6W9eXCoXW0m+3Bg9dv6I8Lqq1Sd+8Pg8F87FY6sA2QDSfykj0B+xuX9vcPmhq6l67fn1zc/N/IFxfOLW7x+SxmJiYmJiYmJiYmJiYmJiYmJiYmJiYmJiYmJj+SxTM+ThOSHg4Tp4J4gum/toQuzHM6eEM/CgkJOuHyiljyMfwu1K7N/Y47p1IlePOPFiZxg4I7960fnRVtwIujmvfvmP1bzAFOvUe3KK6Qusx50eofTflaccbn3Pc7+71HJCPD+x+HQwlvPT+nvVDnZox96DLIVRe9nV///YHnvb+pLDHJfKxyI6La98KJX9/kyvf2p3h3pnh2rEqV9sT7gbuS1b8E/YrH3BcLbS7x8k3vGBEbuXW7g7139euSAUL3mhOeaPtBx5O/lACb1FO0Ub+8MHq5Y8eRSZfv7P66rJw9s6McHGmHXhce/njmdsfz2xc/OSLD7j19++134n/YUd6+kcrfqHh/qeRavv21N09LvZYehKpdndvCjesCV8V7MZ936t39oTzn/zpjouTdyeffDxTelylPFT33b0PP/ns/OlL/+JWluWzSQ/354+++IuH++yvOzdAgjjzxye7ri92Hwinds4uzwiW/K69/Ykv74Hv/3Sn/TAqPaqvXQUBLOUsuWZVsCv35Scx+EYfKWAn5LON+9R/ZWs7VQzluK8ev/wJBPsUBMqfH3/5N3C5/H3n7yD1rf/js/Of/jNx69MH1ZVTxcieFW93f+3a/dqy9HRHfhoKFysTX/7LgkFUIbDwjX4FwHog2PbtfQtST3n/vo/r1u9UEdh7Z/7t4zZgxHraT5ddZyofcWfvfN7OVdtPbFZ4sP2JRxdtO+3SzqNbM9yf9tcufcC1HyYsjVjX05QCdtfHrexObpwP36c/q62chz+tW//mINi7Clj5xk75pfszK/G9u/H3PN36Pe7y7s3ujeXFu8tWzCn7Ve7s7k0AduXdnfKNizuPTu2VTs1YMBAAm85kMosgYuEb/WoneGMncT703tNl3+1l6gPKZQl8fPg5tOhcLgr9uqebTOYzVbmWUubK/ConZHzcfClFfepUlAdhk3G1wdi1ZHKmnOdWUqmENa4gkQTKC4tcNKe/0cVF6cMcoBA9NiPGxMTExMTExMTExMTExMTExMTExMTExMTExPQi6D8luDkVkhf9NAAAAABJRU5ErkJggg==;" parent="1" vertex="1">
          <mxGeometry x="772.4100000000001" y="769" width="94.25" height="40" as="geometry" />
        </mxCell>
        <mxCell id="XOACGdIlgl1HNSo2p2i9-34" value="" style="shape=image;verticalLabelPosition=bottom;labelBackgroundColor=default;verticalAlign=top;aspect=fixed;imageAspect=0;image=data:image/png,iVBORw0KGgoAAAANSUhEUgAAASwAAACoCAMAAABt9SM9AAABxVBMVEX4+vz///8ixV77vyQSGSYAAAD7/f+LXPb4/P8AABcAAAjY2t12eX4ABRn5//9scHafoab63qb7vQ2GiY6Vl5v//P8AABXnODgNFSMcIi6OkZYAABDiMDB+gYbR1Nfv8fOws7f2tSAzN0AAwlLtQUHi5OeGlqvyqxwhv1vDxskftVYerlMcp1Abn0x/jqQNw1ZJTVRaXmSGU/arrbHrnhZ4h54pLjiz5cQAzmI0yGjfKiqBMNiDOd6GRufHycyBU/8amEmWortre5I/Q0v6147o9fDJ7NaZ3rCN26azwKHrpKfzub3z291x1JGdazDjAADgTU3plpeGi0jkDiG2XjjpgYHW8OBLs1fEUjbtZ2hznVDoZ3PvMyrFeLnPI2i8pOxoANLk2/TY5drxx8l1H9XIOILtjI32RjSJJ8ayjOSvM6LjrcOoe92sIJnYPGfRO3fUw+/GsfOMSNykfvBh0YWTXejg2fvdyNX3yXTvqjbWn4aAxJfmjwC8iLK0gb6v2b7ryK/fijHlrGXdeQA7mGJqnI55nJ3xz6aXxaYAhi336tRMkG/3wlm71cUAeB5konehkW/UrE/DpGCPiXtWcJLGwrn58N3UW44KAAAKeklEQVR4nO2a/X/TxhnAdYlPcWxLdmzLka3EEg4KVSmJHROnSSDvCVmBBZaVri1bN+aNtnspdN0KIXtjwEoK27qx/b177nSy5He3wAcBz/eHxpbOru/Lc889dzpJQhAEQRAEQRAEQRAEQRAEQRAEQRAEQRAEQRAEQRAEQRAEQRAEQRAEQRAEQRAEQRDkuaBxZFWNvuhfEnI0jWzvLJzb3d393jvnL0gorCuatr1wcXZqatbl+3t7ly5fQF+d0LSdL8DTUIO3f7C/tL83cdlEXS1o2sLiVMAUt/XDJWB/711TfdE/L1RoVxanhtp4b39paWJiYmnvsoq6Gmi7HVRBaE1wWRMTV49fQFsu2vbibCdXQ2//yHU1MT6x9w7aYmhXOqvyZY0D++9+K1uEyPy/5Dn96BeEttNxCHJZXmAxlt7vY0uW5MZrMmrEZYkkjdQrZUu70t3VB/u+q/HjEx/2tEUSlDbMEEq5LPpKydK2u7oaGppY8l2NHz9+9cc9e05HqePFFom9irKk7qqCGYu5Oj7+k4+6d51YNBOrePdfSVnkYofkDise4IOlFlfAT38md/2mMpXK1BT3X0VZ2kLbIJydWtxd2Lly7fzlD/f3lwKDELhe/7hb32WbViC4PDdNstyZkV8WcyTMBe5Eyf7I/v1w0xpXs7Pntr0dGlX9+ft7TYF1qV7vNhBJllpEorUOskgqKXIZqSYtmb0vEjtbqcItM1OitDZpvwTxp+22yJralbTAfVW9cOmq72r8F/Xlutk5CkieSkxOUWgJymoMRjJJs/y9Y1FKC4Q4YCqZAF9W+G21zISzQ1e0lhaq+sv9hqzrHy8v1z/p2C25SJNEkh06KbT0kpWgKapkHZvEKXVgHJIVw5McXrRzTYE1u6i2ugLU8/ueq0/ry2Cr41eBgBXormzQASIrkauVJCLLpEKr/AZEWDnsoSU3D8LFzjWn+qul6xBc18e5qzP1mx2bUYX1Fmy4A6q3LIXazKlJDW/y1Kn57Pv3LGlZ50xtd4grBvn1bz777WefLjNVwOcdYoAVWXxyK9LKALKMsmi86c0HlbCPQ62pxppa6OIKYmu5Xq8LVWfO1jvUWlBkxflVyPM8aPrkLNesQyuSyZEqfvEfTrSmUbjY1ZWk3vBVnT17pn0cQpFVIi4ppqOvrKwrK6ZQQSzssppW0FM73WVJ5PNlYYrxu7ZxSApGrSRQ8oPLoqVsQZCJh1pWS/Xew5Wk3qw3VM3NzbXLiih5D51nny6yEk2yViDBNQi1q+aKdHa3lyzJrPuqRlZbJy7odbnR6RRNkBZZCag/eUOyGQvKsmleeJdt+zn08BmifeHLemO21yiEXv5eqBoB5v7QkrTASdWLNtmkVGpd7ohVEBShuYAsNhsU+QtZ4h8KMdoi1+Qytd2zLfnEM8Vk3WjN8DRQJUEVAKVWUBb4g4ACzHzeaJJl0ZrJilP4TCHcRSnxRHFZvVOG+pHvamSuZTokVVrxuwoGyqRl1yFFaTmVStLNVDBn8YRvFBwnVQt+QSghs66nNxlv9P6x6s2Gqg6y8s3rYAqllthWrohComqw+iBBsiyCQKEXR8TKsxu50O96EeHJpY+sGz1ktT7D4TNb89MdQopOUSLifaA9IfaKEw//MyDimzp58s0+w/DLVV/W6pff4RGiLHf5P8hd74QJ8h7XJOid4NVbIwHGXr+DIuRiw9Rbb53c6fnPq94+aITW6sFrKEu7wzUJ7vRMG+Zh+o/C1uqf0q+jrD83VJ0CekWW+pfD4fTByOrc3OrIQfp1lCVdE5pcHvewpf719PBwOn334OBuOj38WsoiAVVrp9a6j8Po0d9AFtMFqoY7yAosh1+Cme07Qe5wTQD7+/Crrraih4dclqBdVtXycOxnUDOFcRNCfvxwjXPq3v0HD+7fu9blB6p3+8iCtV8DGnnqatxm7kO3y0xcV2sP1tfXp6enH0gdf6D698N+kUUjPjotP92vkovg3t14DhPkKx5a01zV9PTMdCdb4Or0ILL0HEOHV8bTrYpBViSSC+EuBMh6eF+4AlszbY/Ro+rWaeDwRD9Zej6VzWYLNQVsiSc1cmAHlJ9pcK/4/yBug8Br9kcmcVdW2NIWD611T9bMzMy8JQV1RdWj2ycGlCWeWFTA1ugk73Yxm6wkqqa7g8yyPzFTyWRmRVggspVJJidFgyJvIDmpuJXKRSJK0rFCtyu/9vDrQGDNzM9vWCYrAKKco0cnAGZrEFnslczCQt8kErFLNKcoisGzD0lCHspZ1FCUHC3x4xLEirEGo256IpMsUdkxSlM0x1KfEgvdaSX58T/u+3HFZM1vbMysO/Gjo6OxW+n0sWPHXFuDypJkPiSJbFMIMV2BHMZOuJEEG56GOwUouskeCDVmBd4gMxqJ5CEsjapoFQnfcVTyz68DsuYZG0/+dSydFgWoZ2vgyDLFkCyBnVg5UYMwoRZxZUVylCmM5BJEXqHue6aGZgmXFQG1RpVfCmNkAfcCGct19U06YEbYGkQW25kiWZ5wCHMBoUFIUonoNSGLFuLFBLdjkjKTWTBNK8aCSHZlMUWOkzJ4znLssOUsSb72oDmuNv4ddOXZOtZXVs2Ox+PFSRYw1CGZHNQS7FkEy2HghsnKZfnJGYU1YKNVqRB2so3F3oory6g4cdObDcO4cpLtmSZZk82uhK2+sqAYZbAuK5t8UtRrpm3brGiiRS6LH4cgLJQMy6YiKfGqKmZxWcyeHN46iwG2ZroHlrDVX1aDUd1048fVF/FlsXElO0xWlctiDxv59AmvmKwYP+8QalnClnD15JtWV9zWAJEFdQKr35WkxB7rMFmjgp6yir4s9yROuGXBFDY930vW8ACy9HwikciDLf5Yiw/DfGbSJWH7stxh2BpZ1ssji3Vhw3W18aR9GDI/TbKOulXwFh904ITJgWqrscvFZRns6aIYb+wjCiv0iWW4M0KbrBDmdwGxpzdc/tMuK53eigaupts+7dVZZFPnaVoi1Rif4wgp1kqlvDsbRhTIScInKencEbFZNMJ02SJLLxdXwntwEpZyM1zWk0dtqm6RaHSsYQvMtX7Yk8X7yRy4aSxWsAoxXTcqXlFKY5SVVUrZC8J8jeq8SA3KMsXkGrotrQBQE7nRNRyMovTwGKiCNfUjcTX9qH0HvlHBsxo0ouv8xAOzYLASNWe6w5AV6O6OFxuoFVad6nxKiIjR6R21LLtmwyyL6ZJW1jeebNxOezzaOopGXTnRLfdSe1xJJh0dNfipIoiKHMx+kIwIWzXruq7QkshhEb1C2RUDhidrmqSjOm+wCQtrkoHvELJkW+HfEm5ZEt9WMuPOf8e2trbGjv4nqVFfTVSCqxBmHT41mclkCuIUEXudYCtlKVWJKPmkw08+8NnQdCoRfTNrivMP8cymrpcSvIHMPjcpFjiybGX8d+FG9nZoWr10usYJbOIR/3Xg+KMoHQI3JW/vL7A76E+AL8HByeeHX2chfUFZ3wKSpLkcyhoMYmUKhUx4q8xw0ZTZEQRBEARBEARBEARBEARBEARBEARBEARBEARBEARBEARBEARBEARBEARBkLDzf/c0lOnBi5OUAAAAAElFTkSuQmCC;" parent="1" vertex="1">
          <mxGeometry x="900" y="759" width="98.21" height="55" as="geometry" />
        </mxCell>
        <mxCell id="XOACGdIlgl1HNSo2p2i9-38" value="" style="rounded=1;whiteSpace=wrap;html=1;" parent="1" vertex="1">
          <mxGeometry x="270" y="479" width="180" height="140" as="geometry" />
        </mxCell>
        <mxCell id="XOACGdIlgl1HNSo2p2i9-39" value="" style="endArrow=classic;html=1;rounded=0;entryX=1;entryY=0.5;entryDx=0;entryDy=0;" parent="1" source="XOACGdIlgl1HNSo2p2i9-40" target="XOACGdIlgl1HNSo2p2i9-38" edge="1">
          <mxGeometry width="50" height="50" relative="1" as="geometry">
            <mxPoint x="718.2" y="552.3299999999999" as="sourcePoint" />
            <mxPoint x="450.0000000000002" y="552.4300000000001" as="targetPoint" />
          </mxGeometry>
        </mxCell>
        <mxCell id="XOACGdIlgl1HNSo2p2i9-41" value="" style="endArrow=classic;html=1;rounded=0;entryX=0.008;entryY=0.614;entryDx=0;entryDy=0;entryPerimeter=0;" parent="1" edge="1">
          <mxGeometry width="50" height="50" relative="1" as="geometry">
            <mxPoint x="358.91999999999996" y="773.99" as="sourcePoint" />
            <mxPoint x="490" y="773.6700000000001" as="targetPoint" />
          </mxGeometry>
        </mxCell>
        <mxCell id="XOACGdIlgl1HNSo2p2i9-44" value="" style="endArrow=none;html=1;rounded=0;" parent="1" edge="1">
          <mxGeometry width="50" height="50" relative="1" as="geometry">
            <mxPoint x="360" y="774" as="sourcePoint" />
            <mxPoint x="360" y="624" as="targetPoint" />
          </mxGeometry>
        </mxCell>
        <mxCell id="XOACGdIlgl1HNSo2p2i9-45" value="&lt;span style=&quot;background-color: light-dark(#ffffff, var(--ge-dark-color, #121212));&quot;&gt;&lt;b&gt;Triggers&lt;/b&gt;&lt;/span&gt;" style="text;html=1;align=center;verticalAlign=middle;resizable=0;points=[];autosize=1;strokeColor=none;fillColor=none;" parent="1" vertex="1">
          <mxGeometry x="325" y="664" width="70" height="30" as="geometry" />
        </mxCell>
        <mxCell id="XOACGdIlgl1HNSo2p2i9-46" value="" style="shape=image;verticalLabelPosition=bottom;labelBackgroundColor=default;verticalAlign=top;aspect=fixed;imageAspect=0;image=data:image/png,iVBORw0KGgoAAAANSUhEUgAAAXEAAACICAMAAAAmsyvzAAAAkFBMVEX///8PDQ4YFhYAAADs7Oz7+/s9PDzk5OS3t7fw8PCDg4Pf39+NjY0JBgjU1NQdGxygoKCUlJQiICGbmpv29vZPTk8TERHDw8PNzc3T09Pa2tpeXl5aWVltbGwFAAS1tbWtrKxFRER1dHQ1NDWIiIjGxcVmZmZTU1MtLCympqZDQkIwLzBzcnM6OTkhICAbGRkBqYAdAAAKCElEQVR4nO2daXuyOhCGxUgFFeuCqFgVt6pvt///7w5BSDIhLKFSW87cn3phwvIwTCYzgbZaCIIgCIIgCIIgCIIgCIIgCIIgCIIgCIIgCIIgCIIgD8L2l1ZwvQbW0rcffS6Nx54PZgRwHszdR59VY+lOD6HERlvEM8JN/0adR59bEwk+CPHaSkLVd9tHn1/DcAeycadFn6J3uR/jTPMW/Asho0efZ1OYf5EiuWPNL/NHn2sTcFfF9s01X6Nr+S4np5yBx5DnxaPP+I8zLm/giZmjN/8Or1oGHpv5/tFn/YeZVRA8lHz16PP+s1QTPJT85dFn/kepKjhKXpFVZcFDydflj+OaJoaUlN43BA8lH5c4RDfozdq3FKRxWA0Cv/aL+s1sueCbVMZQCc0iOlzyU8EB3NGFSu0YFMe5Cf9e1CtFfxjTh9uTzcOSKfxu0v5Rt73L4/DN2j9NdwWZFY+Q83Thrxy+If9SB4RsjBSE/BPa+MVXb/NMfVfcbrHNb6Wu1+T7GZbqcHd2grUu6YZOXjbLI5tRJPBceDLOObsfeiQtd2TsbTNu4u4joy9w8R22H1nxZPNTqes1+X4eo/hIcOIk2TgldKu3EUtADr0LPGtoiv2yU+aWyr5v15vE8rYTaUCc/GJHUxS3BXM2uK3a61Djy3q8Xfj9brfvL4LxK3XGe26IO+7wPZJln1aGgdPrvcZtnkgpxZqi+F401YHww2me8s6duZi7ehd79tR7H2YLbpDYdZ+4ArmDaUMU74uBIZnqdD2CrkqPYMbxiQrHiZ+LAVcguePDcYIwoDZE8TWQ7VrcgTMCXZVGvocm7rAhgV7uOdWIJcYGbPAQYv1mKN4Fc59ScxkGnDepPHkXCB4OxrP18Xjcv84+RTHHaRtnm8SnrhmKH6FqGd5YzdoBfRUeSTTxcNAdmuyXznzvJJe75Aokw0RzFTc9EHd7Hzqd32BfI9XAFQXfdRW7uDFLYpVZsqW5is+lhArJliVFX+6bqsEFXHHymrMn9406dodcmGNqruLrDRDNOGj0dS8wAZN2SWd+aQU7Hk/CWa4wiDRWcVM2U63VnHDUbXtOau/cxJdFO3PBwNtYxRdQMxLodR9J3aVklDAi6lYtuOJC7bouxTvDuTUf/sxyyjGQTMunRFzA2ClH86OSc8mWtbUitmzREZsUkfXtF3ozSyq+SPZmsRZ2vMnaUl0Fxf3WaZ9E/pOfWNr3AuM7q7gHJAB3zJFGRxYbOo6p7n+jz5Nl1Kv1g3ci+KN4IXWrtOJ8b8yVTdkmOtYIig+eCZsVb4juM16BDbRR7f4uUNxrw18/mBIzdfeYPlfApqEiSacGojSjoDhwAVBx8znpzb00e9okxQ3pSHrzkQp0gGAbjXplgvSQwIGXXU7BVBYqvlPlviTFN7uZwEeSDr7ZuI7iqeNoTbr1OcEJZ6C/Bzh2wqGTz39ysucUfcUNIsLy799X3JBH/ztjQb0KI7g0cAZFwHJbwQmwudHueSLyFSWzKiieIdcdFN9Vk7IkU6iXxnwzwYd7AMFKPz3QmaGLFiHRkPpgxR3gy+s1cimNVeFlNjgSwGSWSvENHKlulc5HKh46pfZEHKrJsaqaZdjfW3Ew7vjVFH+5rWkRJImqzq1aFCcrq2O23PmED8qXqmqWYX9vrzKAv1VS3LRt2+UzoLFrU2jv+yvOXIjdZidWxfBKs8+JNMqxuL/iEQV5lbspzva9VQzzNSApXuFQVo5XEYRM1lDdTXEQHfLu1RUXJg+BvgylOeZEGuUY5YycvOTGoka50FxVcXK1BHpwll9N8RVrAh7UOzP9RsntBsyvQ/Ow+YWx7ZJRVlY8Z5ZfUfEeaFIXcP6iV3K7cYCJGZgi5A8quwi3E2LPWYqrquJ5maxqik9Zk3d9GUojp8e1R+luboL8AvMdnOUvVJwNnbW+2mR/ryCRLknAW7ZOK3lj8QsVt35E8Ras5BvlSigC0Kl4z/DXKb+yAPzwGxW//oziKwfaqGZ8KK0EkF9PEapu/8APv1Fx7sdrnebDYEXbyGHRLR1eCvEzyCr+RsV7qiPen6Vcy9c62kDuLb0swmNcwzFET/4bFX9lTbRrj1oY0qsQOn5FXl0kF93A2nHyJJRtf0pxFqyWUPyNBVb1fmxgL6tWviwhC66aQYlZ0C/uWHSiQ2EGWE5xoc7JvFyx4sIEud5lFCdZNq+gQsa4pt4UUtwsvmqWLnL7GM+7tt1d8ml5puJsHHOE+KekjX8yxVlBu5elOFOXRbKOfn1dj89YN89x4r/IusRN7qZfufU+Fe1AHiWdespU/Mo37eiKXJe2K6n4B2/WC12Z2bkehC0tUXGH9BbU23V6vEXeAsl7EK8R8i6vL15stYQcCzLl/T1xZMHVibC5YOQKMhVf8H6EeJNJZK4lFX8V+x6ePkF9Q6pI0FcILk8TsUWFfJ4WcRGHzs/dUTvOSxFyDjJF7492RPWKM1GuAnrPlTxTcVvsRguib63Sio/EvhuYrVTWOeGDWPtquNvYaTzZrc6odU6kDK1j8jLdSuHe8jqYfWW805w1cZjlSZ6peOsFdtvQBXolFe/nHLG4ll9h0Y4msZFHa0oCX3iZ1nNI25bbEjmc5IpnLdrLk9wxshRfVFc874jFilcoPeoSv81Dv8DU7YLlzekyXCq04W2zFzP1SOYVkqiMq1Jc9Ma6incVx4vPASiuOK+612RFuCxIWbTctZANdBSfB9plfCUhPfsRWL4pNQ9HrV70YCgVZ6/V6isebpAWLhLy7/b2gKg4OQ/k86o1N85JvjzhhZHoyuZzItV095ph5CT/44fznbx8k64TSVYPC2trRdfUE7pED0OHtwOKb9nm5EsIS0fQMvz7YIXjqbC29sa+5e+ENXTOz302M4mt6SPlhtOTmy9Xjtryuz+J4IXjTSdYg2LwbCS4rGAUA+9xZzBJmu+iO3odxMD0j5tsPvL7vuWflZ4c6aHsW4voqMEx+pteX39wYZOEwY9979tmfoXa0XK5ik7gRTX5tJWKe1+568NZZ39hXUOsYenhiXaxFnKGrBSmfwrCYy0LZXT9uWVZyx/95HRSfaPRv9ta7Lv9ue9eVe81mM+qWOVRnyn5w0yTeCV6R+Hd7pCROVPZuFLx2qdpTSQeL41DPHRlPWIqxestmjSW+IOeziQ/W6tQHD/rWZGXxLGs4s+quKrhLa04Cl6Z5LO1NHw9v5yfNqpEcUpxFPwb8I93eEY49fAmijaS4l6ti/SaTwCygiUUr7sK23z8T6KjOPmoNDVBRHrczIsUr3kpzf8G/5BUjPMV98g/NPA7sY3rncpKcay4R77Qg9+RYELTh2obp2tDN+SC//XqzixeCVEHfu/hD2v8Fyk14C4y3nxbLvCT7QiCIAiCIAiCIAiCIAiCIAiCIAiCIAiCIAiCIAiCIFX4DxiRo5/IzhVMAAAAAElFTkSuQmCC;" parent="1" vertex="1">
          <mxGeometry x="280" y="519.52" width="160" height="58.97" as="geometry" />
        </mxCell>
        <mxCell id="XOACGdIlgl1HNSo2p2i9-40" value="&lt;span style=&quot;background-color: light-dark(#ffffff, var(--ge-dark-color, #121212));&quot;&gt;&lt;b&gt;Code Commit&lt;/b&gt;&lt;/span&gt;" style="text;html=1;align=center;verticalAlign=middle;resizable=0;points=[];autosize=1;strokeColor=none;fillColor=none;" parent="1" vertex="1">
          <mxGeometry x="533.22" y="534.01" width="100" height="30" as="geometry" />
        </mxCell>
        <mxCell id="XOACGdIlgl1HNSo2p2i9-49" value="" style="endArrow=none;html=1;rounded=0;exitX=0.974;exitY=0.533;exitDx=0;exitDy=0;exitPerimeter=0;entryX=0;entryY=0.5;entryDx=0;entryDy=0;" parent="1" source="XOACGdIlgl1HNSo2p2i9-40" target="XOACGdIlgl1HNSo2p2i9-2" edge="1">
          <mxGeometry width="50" height="50" relative="1" as="geometry">
            <mxPoint x="780" y="714" as="sourcePoint" />
            <mxPoint x="830" y="664" as="targetPoint" />
          </mxGeometry>
        </mxCell>
        <mxCell id="XOACGdIlgl1HNSo2p2i9-55" value="&lt;span style=&quot;background-color: light-dark(#ffffff, var(--ge-dark-color, #121212));&quot;&gt;&lt;b&gt;Runs on&lt;/b&gt;&lt;/span&gt;" style="text;html=1;align=center;verticalAlign=middle;resizable=0;points=[];autosize=1;strokeColor=none;fillColor=none;" parent="1" vertex="1">
          <mxGeometry x="972.5" y="530.35" width="70" height="30" as="geometry" />
        </mxCell>
        <mxCell id="dpxWaP_ymL67OSaogF-G-2" value="" style="endArrow=none;html=1;rounded=0;exitX=0.974;exitY=0.533;exitDx=0;exitDy=0;exitPerimeter=0;" parent="1" target="XOACGdIlgl1HNSo2p2i9-55" edge="1">
          <mxGeometry width="50" height="50" relative="1" as="geometry">
            <mxPoint x="920" y="545.85" as="sourcePoint" />
            <mxPoint x="970" y="545" as="targetPoint" />
          </mxGeometry>
        </mxCell>
        <mxCell id="dpxWaP_ymL67OSaogF-G-3" value="" style="endArrow=classic;html=1;rounded=0;entryX=0;entryY=0.5;entryDx=0;entryDy=0;exitX=0.95;exitY=0.488;exitDx=0;exitDy=0;exitPerimeter=0;" parent="1" source="XOACGdIlgl1HNSo2p2i9-55" target="XOACGdIlgl1HNSo2p2i9-28" edge="1">
          <mxGeometry width="50" height="50" relative="1" as="geometry">
            <mxPoint x="870" y="494" as="sourcePoint" />
            <mxPoint x="920" y="444" as="targetPoint" />
          </mxGeometry>
        </mxCell>
        <mxCell id="q3GJl9vy9r8BQpJHSPMu-14" value="" style="endArrow=classic;html=1;rounded=0;exitX=0.5;exitY=0;exitDx=0;exitDy=0;" parent="1" source="XOACGdIlgl1HNSo2p2i9-2" edge="1">
          <mxGeometry width="50" height="50" relative="1" as="geometry">
            <mxPoint x="830" y="424" as="sourcePoint" />
            <mxPoint x="960" y="324" as="targetPoint" />
            <Array as="points">
              <mxPoint x="820" y="374" />
              <mxPoint x="820" y="324" />
              <mxPoint x="900" y="324" />
            </Array>
          </mxGeometry>
        </mxCell>
        <mxCell id="q3GJl9vy9r8BQpJHSPMu-15" value="&lt;span style=&quot;background-color: light-dark(#ffffff, var(--ge-dark-color, #121212));&quot;&gt;&lt;b&gt;Reports to&lt;/b&gt;&lt;/span&gt;" style="text;html=1;align=center;verticalAlign=middle;resizable=0;points=[];autosize=1;strokeColor=none;fillColor=none;" parent="1" vertex="1">
          <mxGeometry x="780" y="354" width="80" height="30" as="geometry" />
        </mxCell>
        <mxCell id="maZFRKi8Z8032rrZgsaS-6" value="" style="rounded=1;whiteSpace=wrap;html=1;" vertex="1" parent="1">
          <mxGeometry x="960" y="230" width="260" height="160" as="geometry" />
        </mxCell>
        <UserObject label="&lt;img src=&quot;https://encrypted-tbn0.gstatic.com/images?q=tbn:ANd9GcRqLlUzQPm3f8snRuHNuVcV9f4mocxtWyEkCg&amp;amp;s&quot; alt=&quot;Microsoft Teams Integration | Planergy ...&quot;&gt;" id="maZFRKi8Z8032rrZgsaS-4">
          <mxCell style="text;whiteSpace=wrap;html=1;" vertex="1" parent="1">
            <mxGeometry x="980" y="242" width="220" height="136" as="geometry" />
          </mxCell>
        </UserObject>
      </root>
    </mxGraphModel>
  </diagram>
</mxfile>
